  0
SECTION
  2
HEADER
  9
$INSBASE
 10
0.0
 20
0.0
 30
0.0
  9
$EXTMIN
 10
-4550.000000
 20
2383.295898
 30
0.000000
  9
$EXTMAX
 10
-3622.906799
 20
4550.000000
 30
0.000000
  9
$LIMMIN
 10
0.000000
 20
0.000000
  9
$LIMMAX
 10
0.000000
 20
0.000000
  9
$LTSCALE
 40
0.000000
  0
ENDSEC
  0
SECTION
  2
TABLES
  0
TABLE
  2
LTYPE
 70
    25
  0
LTYPE
  2
CONTINUOUS
 70
    64
  3
Solid line
 72
    65
 73
     0
 40
0.00
  0
LTYPE
  2
BORDER
 70
    64
  3
__ __ . __ __ . __ __ . __ __ . __ __ . __ __ .
 72
    65
 73
     6
 40
0.25
 49
0.50
 49
-0.25
 49
0.50
 49
-0.25
 49
0.00
 49
-0.25
  0
LTYPE
  2
BORDER2
 70
    64
  3
__.__.__.__.__.__.__.__.__.__.__.__.__.__.__.__
 72
    65
 73
     6
 40
0.13
 49
0.25
 49
-0.13
 49
0.25
 49
-0.13
 49
0.00
 49
-0.13
  0
LTYPE
  2
BORDERX2
 70
    64
  3
____  ____  .  ____  ____  .  ____  ____  .  __
 72
    65
 73
     6
 40
0.50
 49
1.00
 49
-0.50
 49
1.00
 49
-0.50
 49
0.00
 49
-0.50
  0
LTYPE
  2
CENTER
 70
    64
  3
____ _ ____ _ ____ _ ____ _ ____ _ ____ _ ____ 
 72
    65
 73
     4
 40
1.00
 49
1.25
 49
-0.25
 49
0.25
 49
-0.25
  0
LTYPE
  2
CENTER2
 70
    64
  3
___ _ ___ _ ___ _ ___ _ ___ _ ___ _ ___ _ ___ _
 72
    65
 73
     4
 40
0.63
 49
0.75
 49
-0.13
 49
0.13
 49
-0.13
  0
LTYPE
  2
CENTERX2
 70
    64
  3
________  __  ________  __  ________  __  _____
 72
    65
 73
     4
 40
2.00
 49
2.50
 49
-0.50
 49
0.50
 49
-0.50
  0
LTYPE
  2
DASHDOT
 70
    64
  3
__ . __ . __ . __ . __ . __ . __ . __ . __ . __
 72
    65
 73
     4
 40
0.00
 49
0.50
 49
-0.25
 49
0.00
 49
-0.25
  0
LTYPE
  2
DASHDOT2
 70
    64
  3
_._._._._._._._._._._._._._._._._._._._._._._._
 72
    65
 73
     4
 40
0.00
 49
0.25
 49
-0.13
 49
0.00
 49
-0.13
  0
LTYPE
  2
DASHDOTX2
 70
    64
  3
____  .  ____  .  ____  .  ____  .  ____  .  __
 72
    65
 73
     4
 40
0.00
 49
1.00
 49
-0.50
 49
0.00
 49
-0.50
  0
LTYPE
  2
DASHED
 70
    64
  3
__ __ __ __ __ __ __ __ __ __ __ __ __ __ __ __
 72
    65
 73
     2
 40
0.25
 49
0.50
 49
-0.25
  0
LTYPE
  2
DASHED2
 70
    64
  3
_ _ _ _ _ _ _ _ _ _ _ _ _ _ _ _ _ _ _ _ _ _ _ _
 72
    65
 73
     2
 40
0.13
 49
0.25
 49
-0.13
  0
LTYPE
  2
DASHEDX2
 70
    64
  3
____  ____  ____  ____  ____  ____  ____  ____ 
 72
    65
 73
     2
 40
0.50
 49
1.00
 49
-0.50
  0
LTYPE
  2
DIVIDE
 70
    64
  3
____ . . ____ . . ____ . . ____ . . ____ . . __
 72
    65
 73
     6
 40
-0.25
 49
0.50
 49
-0.25
 49
0.00
 49
-0.25
 49
0.00
 49
-0.25
  0
LTYPE
  2
DIVIDE2
 70
    64
  3
__..__..__..__..__..__..__..__..__..__..__..__.
 72
    65
 73
     6
 40
-0.13
 49
0.25
 49
-0.13
 49
0.00
 49
-0.13
 49
0.00
 49
-0.13
  0
LTYPE
  2
DIVIDEX2
 70
    64
  3
________  .  .  ________  .  .  ________  .  . 
 72
    65
 73
     6
 40
-0.50
 49
1.00
 49
-0.50
 49
0.00
 49
-0.50
 49
0.00
 49
-0.50
  0
LTYPE
  2
DOT
 70
    64
  3
. . . . . . . . . . . . . . . . . . . . . . . .
 72
    65
 73
     2
 40
-0.25
 49
0.00
 49
-0.25
  0
LTYPE
  2
DOT2
 70
    64
  3
...............................................
 72
    65
 73
     2
 40
-0.13
 49
0.00
 49
-0.13
  0
LTYPE
  2
DOTX2
 70
    64
  3
.  .  .  .  .  .  .  .  .  .  .  .  .  .  .  . 
 72
    65
 73
     2
 40
-0.50
 49
0.00
 49
-0.50
  0
LTYPE
  2
HIDDEN
 70
    64
  3
__ __ __ __ __ __ __ __ __ __ __ __ __ __ __ __
 72
    65
 73
     2
 40
0.13
 49
0.25
 49
-0.13
  0
LTYPE
  2
HIDDEN2
 70
    64
  3
_ _ _ _ _ _ _ _ _ _ _ _ _ _ _ _ _ _ _ _ _ _ _ _
 72
    65
 73
     2
 40
0.06
 49
0.13
 49
-0.06
  0
LTYPE
  2
HIDDENX2
 70
    64
  3
____ ____ ____ ____ ____ ____ ____ ____ ____ __
 72
    65
 73
     2
 40
0.25
 49
0.50
 49
-0.25
  0
LTYPE
  2
PHANTOM
 70
    64
  3
______  __  __  ______  __  __  ______  __  __ 
 72
    65
 73
     6
 40
1.00
 49
1.25
 49
-0.25
 49
0.25
 49
-0.25
 49
0.25
 49
-0.25
  0
LTYPE
  2
PHANTOM2
 70
    64
  3
___ _ _ ___ _ _ ___ _ _ ___ _ _ ___ _ _ ___ _ _
 72
    65
 73
     6
 40
0.50
 49
0.63
 49
-0.13
 49
0.13
 49
-0.13
 49
0.13
 49
-0.13
  0
LTYPE
  2
PHANTOMX2
 70
    64
  3
____________    ____    ____    ____________   
 72
    65
 73
     6
 40
2.00
 49
2.50
 49
-0.50
 49
0.50
 49
-0.50
 49
0.50
 49
-0.50
  0
ENDTAB
  0
TABLE
  2
LAYER
 70
     1
  0
LAYER
  2
ê›îı-â∆ãÔ1äK
 70
     0
 62
     7
  6
CONTINUOUS
  0
ENDTAB
  0
TABLE
  2
STYLE
 70
     1
  0
STYLE
  2
STANDARD
 70
     0
 40
0.0
 41
1.0
 50
0.0
 71
     0
 42
0.2
  3
txt.shx
  4
bigfont.shx
  0
ENDTAB
  0
ENDSEC
  0
SECTION
  2
BLOCKS
  0
ENDSEC
  0
SECTION
  2
ENTITIES
  0
POLYLINE
  8
ê›îı-â∆ãÔ1äK
  6
CONTINUOUS
 62
7
 10
0.0
 20
0.0
 30
0.0
 66
     1
 70
     1
  0
VERTEX
  8
ê›îı-â∆ãÔ1äK
 10
-4224.140408
 20
4550.000000
 30
0.000000
  0
VERTEX
  8
ê›îı-â∆ãÔ1äK
 10
-4224.142594
 20
4534.882471
 30
0.000000
  0
VERTEX
  8
ê›îı-â∆ãÔ1äK
 10
-4249.531203
 20
4497.705168
 30
0.000000
  0
VERTEX
  8
ê›îı-â∆ãÔ1äK
 10
-4277.368213
 20
4497.705393
 30
0.000000
  0
VERTEX
  8
ê›îı-â∆ãÔ1äK
 10
-4332.252457
 20
4435.787388
 30
0.000000
  0
VERTEX
  8
ê›îı-â∆ãÔ1äK
 10
-4354.661227
 20
4366.245842
 30
0.000000
  0
VERTEX
  8
ê›îı-â∆ãÔ1äK
 10
-4368.057952
 20
4241.239296
 30
0.000000
  0
VERTEX
  8
ê›îı-â∆ãÔ1äK
 10
-4370.012174
 20
4171.867027
 30
0.000000
  0
VERTEX
  8
ê›îı-â∆ãÔ1äK
 10
-4399.569955
 20
4171.866534
 30
0.000000
  0
VERTEX
  8
ê›îı-â∆ãÔ1äK
 10
-4379.390977
 20
4364.758723
 30
0.000000
  0
VERTEX
  8
ê›îı-â∆ãÔ1äK
 10
-4390.231340
 20
4379.797790
 30
0.000000
  0
VERTEX
  8
ê›îı-â∆ãÔ1äK
 10
-4411.917684
 20
4391.826204
 30
0.000000
  0
VERTEX
  8
ê›îı-â∆ãÔ1äK
 10
-4410.101994
 20
4409.160648
 30
0.000000
  0
VERTEX
  8
ê›îı-â∆ãÔ1äK
 10
-4425.235806
 20
4421.745512
 30
0.000000
  0
VERTEX
  8
ê›îı-â∆ãÔ1äK
 10
-4452.043855
 20
4424.851128
 30
0.000000
  0
VERTEX
  8
ê›îı-â∆ãÔ1äK
 10
-4470.651481
 20
4415.992748
 30
0.000000
  0
VERTEX
  8
ê›îı-â∆ãÔ1äK
 10
-4472.557825
 20
4397.788007
 30
0.000000
  0
VERTEX
  8
ê›îı-â∆ãÔ1äK
 10
-4494.279487
 20
4391.866268
 30
0.000000
  0
VERTEX
  8
ê›îı-â∆ãÔ1äK
 10
-4509.857194
 20
4379.210938
 30
0.000000
  0
VERTEX
  8
ê›îı-â∆ãÔ1äK
 10
-4550.000000
 20
3995.453591
 30
0.000000
  0
VERTEX
  8
ê›îı-â∆ãÔ1äK
 10
-4505.765784
 20
3924.615106
 30
0.000000
  0
VERTEX
  8
ê›îı-â∆ãÔ1äK
 10
-4442.117716
 20
3767.133956
 30
0.000000
  0
VERTEX
  8
ê›îı-â∆ãÔ1äK
 10
-4390.266167
 20
3697.620603
 30
0.000000
  0
VERTEX
  8
ê›îı-â∆ãÔ1äK
 10
-4420.480716
 20
3612.860091
 30
0.000000
  0
VERTEX
  8
ê›îı-â∆ãÔ1äK
 10
-4428.576776
 20
3530.105077
 30
0.000000
  0
VERTEX
  8
ê›îı-â∆ãÔ1äK
 10
-4442.300790
 20
3449.754088
 30
0.000000
  0
VERTEX
  8
ê›îı-â∆ãÔ1äK
 10
-4432.966932
 20
3381.227980
 30
0.000000
  0
VERTEX
  8
ê›îı-â∆ãÔ1äK
 10
-4432.897594
 20
3343.832716
 30
0.000000
  0
VERTEX
  8
ê›îı-â∆ãÔ1äK
 10
-4454.375783
 20
3331.143981
 30
0.000000
  0
VERTEX
  8
ê›îı-â∆ãÔ1äK
 10
-4461.716430
 20
3288.698120
 30
0.000000
  0
VERTEX
  8
ê›îı-â∆ãÔ1äK
 10
-4454.369707
 20
3246.244159
 30
0.000000
  0
VERTEX
  8
ê›îı-â∆ãÔ1äK
 10
-4431.459670
 20
3233.558526
 30
0.000000
  0
VERTEX
  8
ê›îı-â∆ãÔ1äK
 10
-4425.502208
 20
3180.308083
 30
0.000000
  0
VERTEX
  8
ê›îı-â∆ãÔ1äK
 10
-4405.601551
 20
3144.366803
 30
0.000000
  0
VERTEX
  8
ê›îı-â∆ãÔ1äK
 10
-4413.807056
 20
3049.680413
 30
0.000000
  0
VERTEX
  8
ê›îı-â∆ãÔ1äK
 10
-4473.213905
 20
3051.375985
 30
0.000000
  0
VERTEX
  8
ê›îı-â∆ãÔ1äK
 10
-4474.286241
 20
3013.804430
 30
0.000000
  0
VERTEX
  8
ê›îı-â∆ãÔ1äK
 10
-4423.621888
 20
3012.358075
 30
0.000000
  0
VERTEX
  8
ê›îı-â∆ãÔ1äK
 10
-4419.752795
 20
2981.647303
 30
0.000000
  0
VERTEX
  8
ê›îı-â∆ãÔ1äK
 10
-4391.265387
 20
2945.309769
 30
0.000000
  0
VERTEX
  8
ê›îı-â∆ãÔ1äK
 10
-4428.013453
 20
2928.098101
 30
0.000000
  0
VERTEX
  8
ê›îı-â∆ãÔ1äK
 10
-4438.452627
 20
2932.060134
 30
0.000000
  0
VERTEX
  8
ê›îı-â∆ãÔ1äK
 10
-4443.533689
 20
2922.062700
 30
0.000000
  0
VERTEX
  8
ê›îı-â∆ãÔ1äK
 10
-4439.151140
 20
2905.986732
 30
0.000000
  0
VERTEX
  8
ê›îı-â∆ãÔ1äK
 10
-4380.567271
 20
2931.663569
 30
0.000000
  0
VERTEX
  8
ê›îı-â∆ãÔ1äK
 10
-4398.966035
 20
2899.010738
 30
0.000000
  0
VERTEX
  8
ê›îı-â∆ãÔ1äK
 10
-4405.631244
 20
2847.883437
 30
0.000000
  0
VERTEX
  8
ê›îı-â∆ãÔ1äK
 10
-4516.188255
 20
2854.385671
 30
0.000000
  0
VERTEX
  8
ê›îı-â∆ãÔ1äK
 10
-4517.268843
 20
2829.251882
 30
0.000000
  0
VERTEX
  8
ê›îı-â∆ãÔ1äK
 10
-4496.169580
 20
2802.631290
 30
0.000000
  0
VERTEX
  8
ê›îı-â∆ãÔ1äK
 10
-4449.701804
 20
2781.360273
 30
0.000000
  0
VERTEX
  8
ê›îı-â∆ãÔ1äK
 10
-4405.539803
 20
2780.901673
 30
0.000000
  0
VERTEX
  8
ê›îı-â∆ãÔ1äK
 10
-4397.972789
 20
2787.290817
 30
0.000000
  0
VERTEX
  8
ê›îı-â∆ãÔ1äK
 10
-4386.029126
 20
2731.811050
 30
0.000000
  0
VERTEX
  8
ê›îı-â∆ãÔ1äK
 10
-4332.453170
 20
2590.156976
 30
0.000000
  0
VERTEX
  8
ê›îı-â∆ãÔ1äK
 10
-4258.338731
 20
2468.045295
 30
0.000000
  0
VERTEX
  8
ê›îı-â∆ãÔ1äK
 10
-4183.540041
 20
2398.199939
 30
0.000000
  0
VERTEX
  8
ê›îı-â∆ãÔ1äK
 10
-4152.287097
 20
2389.441443
 30
0.000000
  0
VERTEX
  8
ê›îı-â∆ãÔ1äK
 10
-4125.495470
 20
2383.295898
 30
0.000000
  0
VERTEX
  8
ê›îı-â∆ãÔ1äK
 10
-4042.655460
 20
2420.366233
 30
0.000000
  0
VERTEX
  8
ê›îı-â∆ãÔ1äK
 10
-4012.546583
 20
2470.526869
 30
0.000000
  0
VERTEX
  8
ê›îı-â∆ãÔ1äK
 10
-4006.806172
 20
2514.472622
 30
0.000000
  0
VERTEX
  8
ê›îı-â∆ãÔ1äK
 10
-4005.864642
 20
2612.950961
 30
0.000000
  0
VERTEX
  8
ê›îı-â∆ãÔ1äK
 10
-4011.575859
 20
2655.207055
 30
0.000000
  0
VERTEX
  8
ê›îı-â∆ãÔ1äK
 10
-4013.945988
 20
2663.888251
 30
0.000000
  0
VERTEX
  8
ê›îı-â∆ãÔ1äK
 10
-4006.421899
 20
2678.212448
 30
0.000000
  0
VERTEX
  8
ê›îı-â∆ãÔ1äK
 10
-3954.697862
 20
2697.447267
 30
0.000000
  0
VERTEX
  8
ê›îı-â∆ãÔ1äK
 10
-3913.360961
 20
2725.039781
 30
0.000000
  0
VERTEX
  8
ê›îı-â∆ãÔ1äK
 10
-3894.431324
 20
2752.153389
 30
0.000000
  0
VERTEX
  8
ê›îı-â∆ãÔ1äK
 10
-3866.517483
 20
2805.292475
 30
0.000000
  0
VERTEX
  8
ê›îı-â∆ãÔ1äK
 10
-3761.589465
 20
2804.129755
 30
0.000000
  0
VERTEX
  8
ê›îı-â∆ãÔ1äK
 10
-3733.755696
 20
2780.831624
 30
0.000000
  0
VERTEX
  8
ê›îı-â∆ãÔ1äK
 10
-3686.305159
 20
2781.338076
 30
0.000000
  0
VERTEX
  8
ê›îı-â∆ãÔ1äK
 10
-3643.634017
 20
2800.729949
 30
0.000000
  0
VERTEX
  8
ê›îı-â∆ãÔ1äK
 10
-3623.289850
 20
2826.791003
 30
0.000000
  0
VERTEX
  8
ê›îı-â∆ãÔ1äK
 10
-3622.906799
 20
2855.807657
 30
0.000000
  0
VERTEX
  8
ê›îı-â∆ãÔ1äK
 10
-3762.787399
 20
2846.774841
 30
0.000000
  0
VERTEX
  8
ê›îı-â∆ãÔ1äK
 10
-3762.839787
 20
2823.089725
 30
0.000000
  0
VERTEX
  8
ê›îı-â∆ãÔ1äK
 10
-3869.165489
 20
2824.267009
 30
0.000000
  0
VERTEX
  8
ê›îı-â∆ãÔ1äK
 10
-3892.063205
 20
2929.937697
 30
0.000000
  0
VERTEX
  8
ê›îı-â∆ãÔ1äK
 10
-3879.790120
 20
3114.128378
 30
0.000000
  0
VERTEX
  8
ê›îı-â∆ãÔ1äK
 10
-3862.967763
 20
3133.480537
 30
0.000000
  0
VERTEX
  8
ê›îı-â∆ãÔ1äK
 10
-3878.150290
 20
3149.591451
 30
0.000000
  0
VERTEX
  8
ê›îı-â∆ãÔ1äK
 10
-3768.848812
 20
3196.202898
 30
0.000000
  0
VERTEX
  8
ê›îı-â∆ãÔ1äK
 10
-3772.328299
 20
3209.451376
 30
0.000000
  0
VERTEX
  8
ê›îı-â∆ãÔ1äK
 10
-3785.179438
 20
3214.903699
 30
0.000000
  0
VERTEX
  8
ê›îı-â∆ãÔ1äK
 10
-3789.963531
 20
3204.353970
 30
0.000000
  0
VERTEX
  8
ê›îı-â∆ãÔ1äK
 10
-3874.420159
 20
3171.392088
 30
0.000000
  0
VERTEX
  8
ê›îı-â∆ãÔ1äK
 10
-3892.841572
 20
3170.658993
 30
0.000000
  0
VERTEX
  8
ê›îı-â∆ãÔ1äK
 10
-3868.607504
 20
3197.868867
 30
0.000000
  0
VERTEX
  8
ê›îı-â∆ãÔ1äK
 10
-3874.108031
 20
3207.748751
 30
0.000000
  0
VERTEX
  8
ê›îı-â∆ãÔ1äK
 10
-3788.958606
 20
3309.270150
 30
0.000000
  0
VERTEX
  8
ê›îı-â∆ãÔ1äK
 10
-3817.847237
 20
3337.795445
 30
0.000000
  0
VERTEX
  8
ê›îı-â∆ãÔ1äK
 10
-3895.282367
 20
3245.471357
 30
0.000000
  0
VERTEX
  8
ê›îı-â∆ãÔ1äK
 10
-3907.206569
 20
3296.845346
 30
0.000000
  0
VERTEX
  8
ê›îı-â∆ãÔ1äK
 10
-3910.684390
 20
3337.997504
 30
0.000000
  0
VERTEX
  8
ê›îı-â∆ãÔ1äK
 10
-3902.944141
 20
3345.106483
 30
0.000000
  0
VERTEX
  8
ê›îı-â∆ãÔ1äK
 10
-3900.385954
 20
3370.706837
 30
0.000000
  0
VERTEX
  8
ê›îı-â∆ãÔ1äK
 10
-3902.940491
 20
3396.307191
 30
0.000000
  0
VERTEX
  8
ê›îı-â∆ãÔ1äK
 10
-3910.682565
 20
3403.427118
 30
0.000000
  0
VERTEX
  8
ê›îı-â∆ãÔ1äK
 10
-3920.094212
 20
3403.427118
 30
0.000000
  0
VERTEX
  8
ê›îı-â∆ãÔ1äK
 10
-3926.334583
 20
3410.516026
 30
0.000000
  0
VERTEX
  8
ê›îı-â∆ãÔ1äK
 10
-3960.878311
 20
3410.515895
 30
0.000000
  0
VERTEX
  8
ê›îı-â∆ãÔ1äK
 10
-3980.822873
 20
3522.496134
 30
0.000000
  0
VERTEX
  8
ê›îı-â∆ãÔ1äK
 10
-3990.744966
 20
3540.103507
 30
0.000000
  0
VERTEX
  8
ê›îı-â∆ãÔ1äK
 10
-3986.382697
 20
3562.538393
 30
0.000000
  0
VERTEX
  8
ê›îı-â∆ãÔ1äK
 10
-3976.468950
 20
3836.416715
 30
0.000000
  0
VERTEX
  8
ê›îı-â∆ãÔ1äK
 10
-3967.509911
 20
3876.369267
 30
0.000000
  0
VERTEX
  8
ê›îı-â∆ãÔ1äK
 10
-3916.587197
 20
4039.772905
 30
0.000000
  0
VERTEX
  8
ê›îı-â∆ãÔ1äK
 10
-3915.727777
 20
4114.320479
 30
0.000000
  0
VERTEX
  8
ê›îı-â∆ãÔ1äK
 10
-3924.991692
 20
4166.229532
 30
0.000000
  0
VERTEX
  8
ê›îı-â∆ãÔ1äK
 10
-3977.537439
 20
4355.309085
 30
0.000000
  0
VERTEX
  8
ê›îı-â∆ãÔ1äK
 10
-4001.706219
 20
4460.447116
 30
0.000000
  0
VERTEX
  8
ê›îı-â∆ãÔ1äK
 10
-4016.851794
 20
4480.320764
 30
0.000000
  0
VERTEX
  8
ê›îı-â∆ãÔ1äK
 10
-4044.781168
 20
4480.320598
 30
0.000000
  0
VERTEX
  8
ê›îı-â∆ãÔ1äK
 10
-4050.833630
 20
4497.703568
 30
0.000000
  0
VERTEX
  8
ê›îı-â∆ãÔ1äK
 10
-4093.706489
 20
4497.703913
 30
0.000000
  0
VERTEX
  8
ê›îı-â∆ãÔ1äK
 10
-4138.615094
 20
4534.882471
 30
0.000000
  0
VERTEX
  8
ê›îı-â∆ãÔ1äK
 10
-4138.612612
 20
4550.000000
 30
0.000000
  0
SEQEND
  0
LINE
  8
ê›îı-â∆ãÔ1äK
  6
CONTINUOUS
 62
7
 10
-3989.068556
 20
3015.279772
 30
0.000000
 11
-3974.146406
 21
3029.307963
 31
0.000000
  0
LINE
  8
ê›îı-â∆ãÔ1äK
  6
CONTINUOUS
 62
7
 10
-3974.146406
 20
3029.307963
 30
0.000000
 11
-3966.687156
 21
3039.821808
 31
0.000000
  0
LINE
  8
ê›îı-â∆ãÔ1äK
  6
CONTINUOUS
 62
7
 10
-4008.831548
 20
3074.180605
 30
0.000000
 11
-3991.188417
 21
3074.946471
 31
0.000000
  0
LINE
  8
ê›îı-â∆ãÔ1äK
  6
CONTINUOUS
 62
7
 10
-3991.188417
 20
3074.946471
 30
0.000000
 11
-3976.696321
 21
3069.995740
 31
0.000000
  0
LINE
  8
ê›îı-â∆ãÔ1äK
  6
CONTINUOUS
 62
7
 10
-3976.696321
 20
3069.995740
 30
0.000000
 11
-3967.646933
 21
3055.068889
 31
0.000000
  0
LINE
  8
ê›îı-â∆ãÔ1äK
  6
CONTINUOUS
 62
7
 10
-3967.646933
 20
3055.068889
 30
0.000000
 11
-3966.692630
 21
3039.818158
 31
0.000000
  0
LINE
  8
ê›îı-â∆ãÔ1äK
  6
CONTINUOUS
 62
7
 10
-3989.068556
 20
3015.279772
 30
0.000000
 11
-4072.462975
 21
2971.117146
 31
0.000000
  0
LINE
  8
ê›îı-â∆ãÔ1äK
  6
CONTINUOUS
 62
7
 10
-4072.462975
 20
2971.117146
 30
0.000000
 11
-4161.857490
 21
2940.471268
 31
0.000000
  0
LINE
  8
ê›îı-â∆ãÔ1äK
  6
CONTINUOUS
 62
7
 10
-4161.864788
 20
2940.467619
 30
0.000000
 11
-4184.032702
 21
2938.431269
 31
0.000000
  0
LINE
  8
ê›îı-â∆ãÔ1äK
  6
CONTINUOUS
 62
7
 10
-4184.032702
 20
2938.431269
 30
0.000000
 11
-4198.318042
 21
2939.529730
 31
0.000000
  0
LINE
  8
ê›îı-â∆ãÔ1äK
  6
CONTINUOUS
 62
7
 10
-4198.318042
 20
2939.529730
 30
0.000000
 11
-4212.344279
 21
2949.127582
 31
0.000000
  0
LINE
  8
ê›îı-â∆ãÔ1äK
  6
CONTINUOUS
 62
7
 10
-4212.344279
 20
2949.127582
 30
0.000000
 11
-4216.137768
 21
2956.079638
 31
0.000000
  0
LINE
  8
ê›îı-â∆ãÔ1äK
  6
CONTINUOUS
 62
7
 10
-4249.531050
 20
4497.705168
 30
0.000000
 11
-4093.706072
 21
4497.703913
 31
0.000000
  0
LINE
  8
ê›îı-â∆ãÔ1äK
  6
CONTINUOUS
 62
7
 10
-4190.707344
 20
3069.907241
 30
0.000000
 11
-4218.232489
 21
3058.667171
 31
0.000000
  0
LINE
  8
ê›îı-â∆ãÔ1äK
  6
CONTINUOUS
 62
7
 10
-4275.862319
 20
3000.272319
 30
0.000000
 11
-4278.525054
 21
2963.834556
 31
0.000000
  0
LINE
  8
ê›îı-â∆ãÔ1äK
  6
CONTINUOUS
 62
7
 10
-4278.525054
 20
2963.834556
 30
0.000000
 11
-4276.432157
 21
2961.305541
 31
0.000000
  0
LINE
  8
ê›îı-â∆ãÔ1äK
  6
CONTINUOUS
 62
7
 10
-4276.432157
 20
2961.305541
 30
0.000000
 11
-4264.374739
 21
2958.594056
 31
0.000000
  0
LINE
  8
ê›îı-â∆ãÔ1äK
  6
CONTINUOUS
 62
7
 10
-4264.374739
 20
2958.594056
 30
0.000000
 11
-4199.826639
 21
2955.227910
 31
0.000000
  0
LINE
  8
ê›îı-â∆ãÔ1äK
  6
CONTINUOUS
 62
7
 10
-4199.826639
 20
2955.227910
 30
0.000000
 11
-4196.193755
 21
3004.808195
 31
0.000000
  0
LINE
  8
ê›îı-â∆ãÔ1äK
  6
CONTINUOUS
 62
7
 10
-3916.848784
 20
3168.667975
 30
0.000000
 11
-3894.021505
 21
3166.433166
 31
0.000000
  0
LINE
  8
ê›îı-â∆ãÔ1äK
  6
CONTINUOUS
 62
7
 10
-3894.021505
 20
3166.433166
 30
0.000000
 11
-3878.150290
 21
3149.591451
 31
0.000000
  0
LINE
  8
ê›îı-â∆ãÔ1äK
  6
CONTINUOUS
 62
7
 10
-3931.761144
 20
3092.208570
 30
0.000000
 11
-3957.824772
 21
3119.860618
 31
0.000000
  0
LINE
  8
ê›îı-â∆ãÔ1äK
  6
CONTINUOUS
 62
7
 10
-4413.807056
 20
3049.680413
 30
0.000000
 11
-4333.963997
 21
3047.401556
 31
0.000000
  0
LINE
  8
ê›îı-â∆ãÔ1äK
  6
CONTINUOUS
 62
7
 10
-4423.621888
 20
3012.358075
 30
0.000000
 11
-4334.712769
 21
3009.819917
 31
0.000000
  0
LINE
  8
ê›îı-â∆ãÔ1äK
  6
CONTINUOUS
 62
7
 10
-3895.282367
 20
3245.471357
 30
0.000000
 11
-3903.340094
 21
3235.864318
 31
0.000000
  0
LINE
  8
ê›îı-â∆ãÔ1äK
  6
CONTINUOUS
 62
7
 10
-4323.523236
 20
3058.130714
 30
0.000000
 11
-4275.660322
 21
3057.499372
 31
0.000000
  0
LINE
  8
ê›îı-â∆ãÔ1äK
  6
CONTINUOUS
 62
7
 10
-4275.660322
 20
3057.499372
 30
0.000000
 11
-4270.839544
 21
3052.072754
 31
0.000000
  0
LINE
  8
ê›îı-â∆ãÔ1äK
  6
CONTINUOUS
 62
7
 10
-3880.942272
 20
3220.024213
 30
0.000000
 11
-3874.108031
 21
3207.748751
 31
0.000000
  0
LINE
  8
ê›îı-â∆ãÔ1äK
  6
CONTINUOUS
 62
7
 10
-3890.639541
 20
3173.106780
 30
0.000000
 11
-3896.397225
 21
3166.666725
 31
0.000000
  0
LINE
  8
ê›îı-â∆ãÔ1äK
  6
CONTINUOUS
 62
7
 10
-3942.086958
 20
3177.549157
 30
0.000000
 11
-3950.462192
 21
3192.602822
 31
0.000000
  0
LINE
  8
ê›îı-â∆ãÔ1äK
  6
CONTINUOUS
 62
7
 10
-3950.462192
 20
3192.602822
 30
0.000000
 11
-3951.692020
 21
3199.996452
 31
0.000000
  0
LINE
  8
ê›îı-â∆ãÔ1äK
  6
CONTINUOUS
 62
7
 10
-3951.692020
 20
3199.996452
 30
0.000000
 11
-3920.749269
 21
3234.738486
 31
0.000000
  0
LINE
  8
ê›îı-â∆ãÔ1äK
  6
CONTINUOUS
 62
7
 10
-4003.640369
 20
4262.422996
 30
0.000000
 11
-3991.964307
 21
4231.675201
 31
0.000000
  0
LINE
  8
ê›îı-â∆ãÔ1äK
  6
CONTINUOUS
 62
7
 10
-4003.640369
 20
4262.422996
 30
0.000000
 11
-4021.806782
 21
4275.154747
 31
0.000000
  0
LINE
  8
ê›îı-â∆ãÔ1äK
  6
CONTINUOUS
 62
7
 10
-4201.506952
 20
3623.663845
 30
0.000000
 11
-4236.404375
 21
3635.564667
 31
0.000000
  0
LINE
  8
ê›îı-â∆ãÔ1äK
  6
CONTINUOUS
 62
7
 10
-4236.404375
 20
3635.564667
 30
0.000000
 11
-4269.909674
 21
3652.885712
 31
0.000000
  0
LINE
  8
ê›îı-â∆ãÔ1äK
  6
CONTINUOUS
 62
7
 10
-4269.909674
 20
3652.885712
 30
0.000000
 11
-4281.760193
 21
3664.348187
 31
0.000000
  0
LINE
  8
ê›îı-â∆ãÔ1äK
  6
CONTINUOUS
 62
7
 10
-4281.760193
 20
3664.348187
 30
0.000000
 11
-4290.591595
 21
3679.014106
 31
0.000000
  0
LINE
  8
ê›îı-â∆ãÔ1äK
  6
CONTINUOUS
 62
7
 10
-4290.591595
 20
3679.014106
 30
0.000000
 11
-4296.715187
 21
3694.959130
 31
0.000000
  0
LINE
  8
ê›îı-â∆ãÔ1äK
  6
CONTINUOUS
 62
7
 10
-4296.715187
 20
3694.959130
 30
0.000000
 11
-4303.141674
 21
3714.649324
 31
0.000000
  0
LINE
  8
ê›îı-â∆ãÔ1äK
  6
CONTINUOUS
 62
7
 10
-4303.141674
 20
3714.649324
 30
0.000000
 11
-4312.319763
 21
3750.524489
 31
0.000000
  0
LINE
  8
ê›îı-â∆ãÔ1äK
  6
CONTINUOUS
 62
7
 10
-4312.319763
 20
3750.524489
 30
0.000000
 11
-4322.523317
 21
3797.492835
 31
0.000000
  0
LINE
  8
ê›îı-â∆ãÔ1äK
  6
CONTINUOUS
 62
7
 10
-4322.523317
 20
3797.492835
 30
0.000000
 11
-4329.429692
 21
3843.920163
 31
0.000000
  0
LINE
  8
ê›îı-â∆ãÔ1äK
  6
CONTINUOUS
 62
7
 10
-4329.429692
 20
3843.920163
 30
0.000000
 11
-4332.387482
 21
3894.247758
 31
0.000000
  0
LINE
  8
ê›îı-â∆ãÔ1äK
  6
CONTINUOUS
 62
7
 10
-4332.387482
 20
3894.247758
 30
0.000000
 11
-4328.854921
 21
3921.557843
 31
0.000000
  0
LINE
  8
ê›îı-â∆ãÔ1äK
  6
CONTINUOUS
 62
7
 10
-4328.854921
 20
3921.557843
 30
0.000000
 11
-4315.188144
 21
3964.205332
 31
0.000000
  0
LINE
  8
ê›îı-â∆ãÔ1äK
  6
CONTINUOUS
 62
7
 10
-4315.188144
 20
3964.205332
 30
0.000000
 11
-4303.459167
 21
4007.465003
 31
0.000000
  0
LINE
  8
ê›îı-â∆ãÔ1äK
  6
CONTINUOUS
 62
7
 10
-4303.459167
 20
4007.465003
 30
0.000000
 11
-4298.684006
 21
4024.235698
 31
0.000000
  0
LINE
  8
ê›îı-â∆ãÔ1äK
  6
CONTINUOUS
 62
7
 10
-4298.684006
 20
4024.235698
 30
0.000000
 11
-4288.427537
 21
4071.291630
 31
0.000000
  0
LINE
  8
ê›îı-â∆ãÔ1äK
  6
CONTINUOUS
 62
7
 10
-4288.427537
 20
4071.291630
 30
0.000000
 11
-4278.094431
 21
4118.385881
 31
0.000000
  0
LINE
  8
ê›îı-â∆ãÔ1äK
  6
CONTINUOUS
 62
7
 10
-4278.094431
 20
4118.385881
 30
0.000000
 11
-4263.586482
 21
4176.504888
 31
0.000000
  0
LINE
  8
ê›îı-â∆ãÔ1äK
  6
CONTINUOUS
 62
7
 10
-4263.586482
 20
4176.504888
 30
0.000000
 11
-4247.928990
 21
4234.559119
 31
0.000000
  0
LINE
  8
ê›îı-â∆ãÔ1äK
  6
CONTINUOUS
 62
7
 10
-4247.928990
 20
4234.559119
 30
0.000000
 11
-4232.180265
 21
4263.413801
 31
0.000000
  0
LINE
  8
ê›îı-â∆ãÔ1äK
  6
CONTINUOUS
 62
7
 10
-4232.180265
 20
4263.413801
 30
0.000000
 11
-4209.472249
 21
4276.735838
 31
0.000000
  0
LINE
  8
ê›îı-â∆ãÔ1äK
  6
CONTINUOUS
 62
7
 10
-3991.964307
 20
4231.675201
 30
0.000000
 11
-3985.435639
 21
4176.505800
 31
0.000000
  0
LINE
  8
ê›îı-â∆ãÔ1äK
  6
CONTINUOUS
 62
7
 10
-3985.435639
 20
4176.505800
 30
0.000000
 11
-3979.572975
 21
4118.384056
 31
0.000000
  0
LINE
  8
ê›îı-â∆ãÔ1äK
  6
CONTINUOUS
 62
7
 10
-3979.572975
 20
4118.384056
 30
0.000000
 11
-3960.434907
 21
3899.071933
 31
0.000000
  0
LINE
  8
ê›îı-â∆ãÔ1äK
  6
CONTINUOUS
 62
7
 10
-3976.468950
 20
3836.416715
 30
0.000000
 11
-3985.508625
 21
3797.493748
 31
0.000000
  0
LINE
  8
ê›îı-â∆ãÔ1äK
  6
CONTINUOUS
 62
7
 10
-3985.508625
 20
3797.493748
 30
0.000000
 11
-3997.175564
 21
3750.525401
 31
0.000000
  0
LINE
  8
ê›îı-â∆ãÔ1äK
  6
CONTINUOUS
 62
7
 10
-3997.175564
 20
3750.525401
 30
0.000000
 11
-4006.735009
 21
3714.653886
 31
0.000000
  0
LINE
  8
ê›îı-â∆ãÔ1äK
  6
CONTINUOUS
 62
7
 10
-4006.735009
 20
3714.653886
 30
0.000000
 11
-4012.842179
 21
3694.952744
 31
0.000000
  0
LINE
  8
ê›îı-â∆ãÔ1äK
  6
CONTINUOUS
 62
7
 10
-4012.842179
 20
3694.952744
 30
0.000000
 11
-4017.960378
 21
3679.012281
 31
0.000000
  0
LINE
  8
ê›îı-â∆ãÔ1äK
  6
CONTINUOUS
 62
7
 10
-4017.960378
 20
3679.012281
 30
0.000000
 11
-4023.709913
 21
3664.346362
 31
0.000000
  0
LINE
  8
ê›îı-â∆ãÔ1äK
  6
CONTINUOUS
 62
7
 10
-4023.709913
 20
3664.346362
 30
0.000000
 11
-4030.585269
 21
3652.981301
 31
0.000000
  0
LINE
  8
ê›îı-â∆ãÔ1äK
  6
CONTINUOUS
 62
7
 10
-4030.585269
 20
3652.981301
 30
0.000000
 11
-4054.369840
 21
3635.558281
 31
0.000000
  0
LINE
  8
ê›îı-â∆ãÔ1äK
  6
CONTINUOUS
 62
7
 10
-4054.369840
 20
3635.558281
 30
0.000000
 11
-4080.190743
 21
3623.807299
 31
0.000000
  0
LINE
  8
ê›îı-â∆ãÔ1äK
  6
CONTINUOUS
 62
7
 10
-3959.195863
 20
3398.945207
 30
0.000000
 11
-3960.878311
 21
3410.515895
 31
0.000000
  0
LINE
  8
ê›îı-â∆ãÔ1äK
  6
CONTINUOUS
 62
7
 10
-4319.370288
 20
3030.205709
 30
0.000000
 11
-4323.523236
 21
3058.130714
 31
0.000000
  0
LINE
  8
ê›îı-â∆ãÔ1äK
  6
CONTINUOUS
 62
7
 10
-4323.523236
 20
3058.130714
 30
0.000000
 11
-4331.874750
 21
3056.747601
 31
0.000000
  0
LINE
  8
ê›îı-â∆ãÔ1äK
  6
CONTINUOUS
 62
7
 10
-4319.370288
 20
3030.205709
 30
0.000000
 11
-4323.546957
 21
3000.893943
 31
0.000000
  0
LINE
  8
ê›îı-â∆ãÔ1äK
  6
CONTINUOUS
 62
7
 10
-4323.546957
 20
3000.893943
 30
0.000000
 11
-4331.903945
 21
2999.510830
 31
0.000000
  0
LINE
  8
ê›îı-â∆ãÔ1äK
  6
CONTINUOUS
 62
7
 10
-4323.546957
 20
3000.893943
 30
0.000000
 11
-4275.676744
 21
3000.269900
 31
0.000000
  0
LINE
  8
ê›îı-â∆ãÔ1äK
  6
CONTINUOUS
 62
7
 10
-4270.839544
 20
3052.072754
 30
0.000000
 11
-4267.436535
 21
3029.260521
 31
0.000000
  0
LINE
  8
ê›îı-â∆ãÔ1äK
  6
CONTINUOUS
 62
7
 10
-4267.436535
 20
3029.260521
 30
0.000000
 11
-4270.020268
 21
3011.166928
 31
0.000000
  0
LINE
  8
ê›îı-â∆ãÔ1äK
  6
CONTINUOUS
 62
7
 10
-3880.942272
 20
3220.024213
 30
0.000000
 11
-3907.013154
 21
3238.460847
 31
0.000000
  0
LINE
  8
ê›îı-â∆ãÔ1äK
  6
CONTINUOUS
 62
7
 10
-3907.013154
 20
3238.460847
 30
0.000000
 11
-3920.749269
 21
3234.738486
 31
0.000000
  0
LINE
  8
ê›îı-â∆ãÔ1äK
  6
CONTINUOUS
 62
7
 10
-4138.615094
 20
4534.882471
 30
0.000000
 11
-4224.142594
 21
4534.882471
 31
0.000000
  0
LINE
  8
ê›îı-â∆ãÔ1äK
  6
CONTINUOUS
 62
7
 10
-3928.482219
 20
3182.877242
 30
0.000000
 11
-3936.487046
 21
3184.161821
 31
0.000000
  0
LINE
  8
ê›îı-â∆ãÔ1äK
  6
CONTINUOUS
 62
7
 10
-3928.482219
 20
3182.877242
 30
0.000000
 11
-3918.291439
 21
3173.819497
 31
0.000000
  0
LINE
  8
ê›îı-â∆ãÔ1äK
  6
CONTINUOUS
 62
7
 10
-3916.114607
 20
3166.046332
 30
0.000000
 11
-3918.291439
 21
3173.819497
 31
0.000000
  0
LINE
  8
ê›îı-â∆ãÔ1äK
  6
CONTINUOUS
 62
7
 10
-4397.765402
 20
3340.272888
 30
0.000000
 11
-4428.323147
 21
3368.480719
 31
0.000000
  0
LINE
  8
ê›îı-â∆ãÔ1äK
  6
CONTINUOUS
 62
7
 10
-4428.323147
 20
3368.480719
 30
0.000000
 11
-4432.966932
 21
3381.227980
 31
0.000000
  0
LINE
  8
ê›îı-â∆ãÔ1äK
  6
CONTINUOUS
 62
7
 10
-4428.576776
 20
3530.105077
 30
0.000000
 11
-4399.332793
 21
3562.178507
 31
0.000000
  0
LINE
  8
ê›îı-â∆ãÔ1äK
  6
CONTINUOUS
 62
7
 10
-4330.977012
 20
3870.244917
 30
0.000000
 11
-4332.465943
 21
3870.244917
 31
0.000000
  0
LINE
  8
ê›îı-â∆ãÔ1äK
  6
CONTINUOUS
 62
7
 10
-4332.465943
 20
3870.244917
 30
0.000000
 11
-4333.467687
 21
3871.743897
 31
0.000000
  0
LINE
  8
ê›îı-â∆ãÔ1äK
  6
CONTINUOUS
 62
7
 10
-4333.467687
 20
3871.743897
 30
0.000000
 11
-4376.338304
 21
4041.178826
 31
0.000000
  0
LINE
  8
ê›îı-â∆ãÔ1äK
  6
CONTINUOUS
 62
7
 10
-4376.338304
 20
4041.178826
 30
0.000000
 11
-4364.722456
 21
4115.806686
 31
0.000000
  0
LINE
  8
ê›îı-â∆ãÔ1äK
  6
CONTINUOUS
 62
7
 10
-4364.722456
 20
4115.806686
 30
0.000000
 11
-4341.078384
 21
4182.459753
 31
0.000000
  0
LINE
  8
ê›îı-â∆ãÔ1äK
  6
CONTINUOUS
 62
7
 10
-3999.489580
 20
3495.130477
 30
0.000000
 11
-3990.744966
 21
3540.103507
 31
0.000000
  0
LINE
  8
ê›îı-â∆ãÔ1äK
  6
CONTINUOUS
 62
7
 10
-4347.440661
 20
3348.926833
 30
0.000000
 11
-4334.715761
 21
3377.315852
 31
0.000000
  0
LINE
  8
ê›îı-â∆ãÔ1äK
  6
CONTINUOUS
 62
7
 10
-4024.363145
 20
3562.373748
 30
0.000000
 11
-3992.602942
 21
3476.513118
 31
0.000000
  0
LINE
  8
ê›îı-â∆ãÔ1äK
  6
CONTINUOUS
 62
7
 10
-4347.440661
 20
3348.926833
 30
0.000000
 11
-4349.603242
 21
3337.231136
 31
0.000000
  0
LINE
  8
ê›îı-â∆ãÔ1äK
  6
CONTINUOUS
 62
7
 10
-4349.603242
 20
3337.231136
 30
0.000000
 11
-4359.885256
 21
3285.357119
 31
0.000000
  0
LINE
  8
ê›îı-â∆ãÔ1äK
  6
CONTINUOUS
 62
7
 10
-4239.488067
 20
3469.707036
 30
0.000000
 11
-4220.099126
 21
3496.591057
 31
0.000000
  0
LINE
  8
ê›îı-â∆ãÔ1äK
  6
CONTINUOUS
 62
7
 10
-4006.308173
 20
2566.560235
 30
0.000000
 11
-4020.434631
 21
2542.671330
 31
0.000000
  0
LINE
  8
ê›îı-â∆ãÔ1äK
  6
CONTINUOUS
 62
7
 10
-4020.434631
 20
2542.671330
 30
0.000000
 11
-4047.516380
 21
2528.165071
 31
0.000000
  0
LINE
  8
ê›îı-â∆ãÔ1äK
  6
CONTINUOUS
 62
7
 10
-4047.516380
 20
2528.165071
 30
0.000000
 11
-4076.457468
 21
2518.410296
 31
0.000000
  0
LINE
  8
ê›îı-â∆ãÔ1äK
  6
CONTINUOUS
 62
7
 10
-4076.457468
 20
2518.410296
 30
0.000000
 11
-4089.107904
 21
2517.220600
 31
0.000000
  0
LINE
  8
ê›îı-â∆ãÔ1äK
  6
CONTINUOUS
 62
7
 10
-4089.107904
 20
2517.220600
 30
0.000000
 11
-4111.662648
 21
2526.084928
 31
0.000000
  0
LINE
  8
ê›îı-â∆ãÔ1äK
  6
CONTINUOUS
 62
7
 10
-4111.662648
 20
2526.084928
 30
0.000000
 11
-4128.438662
 21
2539.346751
 31
0.000000
  0
LINE
  8
ê›îı-â∆ãÔ1äK
  6
CONTINUOUS
 62
7
 10
-4128.438662
 20
2539.346751
 30
0.000000
 11
-4146.561283
 21
2569.819018
 31
0.000000
  0
LINE
  8
ê›îı-â∆ãÔ1äK
  6
CONTINUOUS
 62
7
 10
-4146.561283
 20
2569.819018
 30
0.000000
 11
-4181.596768
 21
2638.445483
 31
0.000000
  0
LINE
  8
ê›îı-â∆ãÔ1äK
  6
CONTINUOUS
 62
7
 10
-4181.596768
 20
2638.445483
 30
0.000000
 11
-4183.669236
 21
2641.396347
 31
0.000000
  0
LINE
  8
ê›îı-â∆ãÔ1äK
  6
CONTINUOUS
 62
7
 10
-4275.083726
 20
3562.370099
 30
0.000000
 11
-4290.551452
 21
3522.067332
 31
0.000000
  0
LINE
  8
ê›îı-â∆ãÔ1äK
  6
CONTINUOUS
 62
7
 10
-4290.551452
 20
3522.067332
 30
0.000000
 11
-4307.862095
 21
3473.953995
 31
0.000000
  0
LINE
  8
ê›îı-â∆ãÔ1äK
  6
CONTINUOUS
 62
7
 10
-4307.863920
 20
3473.955819
 30
0.000000
 11
-4319.578300
 21
3431.549189
 31
0.000000
  0
LINE
  8
ê›îı-â∆ãÔ1äK
  6
CONTINUOUS
 62
7
 10
-4334.715761
 20
3377.315852
 30
0.000000
 11
-4319.578300
 21
3431.549189
 31
0.000000
  0
LINE
  8
ê›îı-â∆ãÔ1äK
  6
CONTINUOUS
 62
7
 10
-4075.209124
 20
3069.903782
 30
0.000000
 11
-4190.705520
 21
3069.899943
 31
0.000000
  0
LINE
  8
ê›îı-â∆ãÔ1äK
  6
CONTINUOUS
 62
7
 10
-4242.544389
 20
3036.595762
 30
0.000000
 11
-4218.236138
 21
3058.667171
 31
0.000000
  0
LINE
  8
ê›îı-â∆ãÔ1äK
  6
CONTINUOUS
 62
7
 10
-4324.273175
 20
3344.433174
 30
0.000000
 11
-4301.862581
 21
3383.713204
 31
0.000000
  0
LINE
  8
ê›îı-â∆ãÔ1äK
  6
CONTINUOUS
 62
7
 10
-4239.488067
 20
3469.707036
 30
0.000000
 11
-4270.582266
 21
3426.717419
 31
0.000000
  0
LINE
  8
ê›îı-â∆ãÔ1äK
  6
CONTINUOUS
 62
7
 10
-4270.582266
 20
3426.717419
 30
0.000000
 11
-4301.857107
 21
3383.720502
 31
0.000000
  0
LINE
  8
ê›îı-â∆ãÔ1äK
  6
CONTINUOUS
 62
7
 10
-4220.099126
 20
3496.591057
 30
0.000000
 11
-4196.664891
 21
3528.450999
 31
0.000000
  0
LINE
  8
ê›îı-â∆ãÔ1äK
  6
CONTINUOUS
 62
7
 10
-4196.664891
 20
3528.450999
 30
0.000000
 11
-4200.232121
 21
3565.777701
 31
0.000000
  0
LINE
  8
ê›îı-â∆ãÔ1äK
  6
CONTINUOUS
 62
7
 10
-4200.232121
 20
3565.777701
 30
0.000000
 11
-4209.842657
 21
3601.044333
 31
0.000000
  0
LINE
  8
ê›îı-â∆ãÔ1äK
  6
CONTINUOUS
 62
7
 10
-4259.557611
 20
3595.415174
 30
0.000000
 11
-4233.942246
 21
3634.725025
 31
0.000000
  0
LINE
  8
ê›îı-â∆ãÔ1äK
  6
CONTINUOUS
 62
7
 10
-4236.805803
 20
3630.330554
 30
0.000000
 11
-4209.842657
 21
3601.044333
 31
0.000000
  0
LINE
  8
ê›îı-â∆ãÔ1äK
  6
CONTINUOUS
 62
7
 10
-4024.363145
 20
3562.373748
 30
0.000000
 11
-4038.969627
 21
3595.415174
 31
0.000000
  0
LINE
  8
ê›îı-â∆ãÔ1äK
  6
CONTINUOUS
 62
7
 10
-4038.969627
 20
3595.415174
 30
0.000000
 11
-4061.621296
 21
3632.258174
 31
0.000000
  0
LINE
  8
ê›îı-â∆ãÔ1äK
  6
CONTINUOUS
 62
7
 10
-4060.435042
 20
3630.328729
 30
0.000000
 11
-4063.750467
 21
3601.041596
 31
0.000000
  0
LINE
  8
ê›îı-â∆ãÔ1äK
  6
CONTINUOUS
 62
7
 10
-4049.687737
 20
3528.453736
 30
0.000000
 11
-4021.908964
 21
3496.590145
 31
0.000000
  0
LINE
  8
ê›îı-â∆ãÔ1äK
  6
CONTINUOUS
 62
7
 10
-4063.750467
 20
3601.041596
 30
0.000000
 11
-4057.780148
 21
3565.774052
 31
0.000000
  0
LINE
  8
ê›îı-â∆ãÔ1äK
  6
CONTINUOUS
 62
7
 10
-4057.780148
 20
3565.774052
 30
0.000000
 11
-4049.680438
 21
3528.454648
 31
0.000000
  0
LINE
  8
ê›îı-â∆ãÔ1äK
  6
CONTINUOUS
 62
7
 10
-4021.908964
 20
3496.590145
 30
0.000000
 11
-4002.998086
 21
3466.968182
 31
0.000000
  0
LINE
  8
ê›îı-â∆ãÔ1äK
  6
CONTINUOUS
 62
7
 10
-4002.998086
 20
3466.968182
 30
0.000000
 11
-3975.316020
 21
3424.082571
 31
0.000000
  0
LINE
  8
ê›îı-â∆ãÔ1äK
  6
CONTINUOUS
 62
7
 10
-3975.316020
 20
3424.082571
 30
0.000000
 11
-3947.820070
 21
3381.206084
 31
0.000000
  0
LINE
  8
ê›îı-â∆ãÔ1äK
  6
CONTINUOUS
 62
7
 10
-3907.206569
 20
3296.845346
 30
0.000000
 11
-3947.820070
 21
3381.198785
 31
0.000000
  0
LINE
  8
ê›îı-â∆ãÔ1äK
  6
CONTINUOUS
 62
7
 10
-4359.885256
 20
3285.357119
 30
0.000000
 11
-4371.935791
 21
3242.672236
 31
0.000000
  0
LINE
  8
ê›îı-â∆ãÔ1äK
  6
CONTINUOUS
 62
7
 10
-4244.984404
 20
2885.744204
 30
0.000000
 11
-4219.965293
 21
2956.278129
 31
0.000000
  0
LINE
  8
ê›îı-â∆ãÔ1äK
  6
CONTINUOUS
 62
7
 10
-4195.789050
 20
2516.768078
 30
0.000000
 11
-4215.429796
 21
2514.742676
 31
0.000000
  0
LINE
  8
ê›îı-â∆ãÔ1äK
  6
CONTINUOUS
 62
7
 10
-4215.429796
 20
2514.742676
 30
0.000000
 11
-4240.781758
 21
2530.526216
 31
0.000000
  0
LINE
  8
ê›îı-â∆ãÔ1äK
  6
CONTINUOUS
 62
7
 10
-4240.781758
 20
2530.526216
 30
0.000000
 11
-4268.801388
 21
2562.217373
 31
0.000000
  0
LINE
  8
ê›îı-â∆ãÔ1äK
  6
CONTINUOUS
 62
7
 10
-4268.801388
 20
2562.217373
 30
0.000000
 11
-4296.100273
 21
2605.995256
 31
0.000000
  0
LINE
  8
ê›îı-â∆ãÔ1äK
  6
CONTINUOUS
 62
7
 10
-4296.100273
 20
2605.995256
 30
0.000000
 11
-4296.998011
 21
2607.944021
 31
0.000000
  0
LINE
  8
ê›îı-â∆ãÔ1äK
  6
CONTINUOUS
 62
7
 10
-4325.546795
 20
2675.727481
 30
0.000000
 11
-4335.863478
 21
2707.838317
 31
0.000000
  0
LINE
  8
ê›îı-â∆ãÔ1äK
  6
CONTINUOUS
 62
7
 10
-4335.863478
 20
2707.838317
 30
0.000000
 11
-4343.530741
 21
2753.623355
 31
0.000000
  0
LINE
  8
ê›îı-â∆ãÔ1äK
  6
CONTINUOUS
 62
7
 10
-4343.530741
 20
2753.623355
 30
0.000000
 11
-4343.273313
 21
2757.950625
 31
0.000000
  0
LINE
  8
ê›îı-â∆ãÔ1äK
  6
CONTINUOUS
 62
7
 10
-4269.996596
 20
3011.332700
 30
0.000000
 11
-4234.061499
 21
3010.108610
 31
0.000000
  0
LINE
  8
ê›îı-â∆ãÔ1äK
  6
CONTINUOUS
 62
7
 10
-4234.061499
 20
3010.108610
 30
0.000000
 11
-4215.549117
 21
3008.624368
 31
0.000000
  0
LINE
  8
ê›îı-â∆ãÔ1äK
  6
CONTINUOUS
 62
7
 10
-4215.549117
 20
3008.624368
 30
0.000000
 11
-4171.291788
 21
2999.898433
 31
0.000000
  0
LINE
  8
ê›îı-â∆ãÔ1äK
  6
CONTINUOUS
 62
7
 10
-3936.487046
 20
3184.161821
 30
0.000000
 11
-3959.642106
 21
3156.820716
 31
0.000000
  0
LINE
  8
ê›îı-â∆ãÔ1äK
  6
CONTINUOUS
 62
7
 10
-3959.642106
 20
3156.820716
 30
0.000000
 11
-3973.653746
 21
3142.285262
 31
0.000000
  0
LINE
  8
ê›îı-â∆ãÔ1äK
  6
CONTINUOUS
 62
7
 10
-3973.653746
 20
3142.285262
 30
0.000000
 11
-4029.967881
 21
3089.491519
 31
0.000000
  0
LINE
  8
ê›îı-â∆ãÔ1äK
  6
CONTINUOUS
 62
7
 10
-4029.967881
 20
3089.491519
 30
0.000000
 11
-4179.237635
 21
3024.863393
 31
0.000000
  0
LINE
  8
ê›îı-â∆ãÔ1äK
  6
CONTINUOUS
 62
7
 10
-4179.237635
 20
3024.863393
 30
0.000000
 11
-4221.901900
 21
3034.803919
 31
0.000000
  0
LINE
  8
ê›îı-â∆ãÔ1äK
  6
CONTINUOUS
 62
7
 10
-4221.901900
 20
3034.803919
 30
0.000000
 11
-4237.719962
 21
3036.427890
 31
0.000000
  0
LINE
  8
ê›îı-â∆ãÔ1äK
  6
CONTINUOUS
 62
7
 10
-4237.719962
 20
3036.427890
 30
0.000000
 11
-4268.664538
 21
3037.497157
 31
0.000000
  0
LINE
  8
ê›îı-â∆ãÔ1äK
  6
CONTINUOUS
 62
7
 10
-3916.114607
 20
3166.046332
 30
0.000000
 11
-3940.607150
 21
3137.161542
 31
0.000000
  0
LINE
  8
ê›îı-â∆ãÔ1äK
  6
CONTINUOUS
 62
7
 10
-3940.607150
 20
3137.161542
 30
0.000000
 11
-3957.031004
 21
3120.571491
 31
0.000000
  0
LINE
  8
ê›îı-â∆ãÔ1äK
  6
CONTINUOUS
 62
7
 10
-3957.031004
 20
3120.571491
 30
0.000000
 11
-4017.360143
 21
3066.542672
 31
0.000000
  0
LINE
  8
ê›îı-â∆ãÔ1äK
  6
CONTINUOUS
 62
7
 10
-4017.360143
 20
3066.542672
 30
0.000000
 11
-4171.291788
 21
2999.898433
 31
0.000000
  0
LINE
  8
ê›îı-â∆ãÔ1äK
  6
CONTINUOUS
 62
7
 10
-4337.195487
 20
3047.492790
 30
0.000000
 11
-4331.874750
 21
3056.747601
 31
0.000000
  0
LINE
  8
ê›îı-â∆ãÔ1äK
  6
CONTINUOUS
 62
7
 10
-4331.903945
 20
2999.510830
 30
0.000000
 11
-4339.326701
 21
3009.951687
 31
0.000000
  0
LINE
  8
ê›îı-â∆ãÔ1äK
  6
CONTINUOUS
 62
7
 10
-4317.791948
 20
2979.742175
 30
0.000000
 11
-4308.936826
 21
2987.624821
 31
0.000000
  0
LINE
  8
ê›îı-â∆ãÔ1äK
  6
CONTINUOUS
 62
7
 10
-4308.936826
 20
2987.624821
 30
0.000000
 11
-4305.502701
 21
3000.658715
 31
0.000000
  0
LINE
  8
ê›îı-â∆ãÔ1äK
  6
CONTINUOUS
 62
7
 10
-4472.557825
 20
4397.788007
 30
0.000000
 11
-4473.930770
 21
4384.677002
 31
0.000000
  0
LINE
  8
ê›îı-â∆ãÔ1äK
  6
CONTINUOUS
 62
7
 10
-4411.917684
 20
4391.826204
 30
0.000000
 11
-4413.369927
 21
4377.961597
 31
0.000000
  0
LINE
  8
ê›îı-â∆ãÔ1äK
  6
CONTINUOUS
 62
7
 10
-4460.513972
 20
3930.122922
 30
0.000000
 11
-4420.247159
 21
3980.480625
 31
0.000000
  0
LINE
  8
ê›îı-â∆ãÔ1äK
  6
CONTINUOUS
 62
7
 10
-4399.569955
 20
4171.866534
 30
0.000000
 11
-4418.017412
 21
3995.526079
 31
0.000000
  0
LINE
  8
ê›îı-â∆ãÔ1äK
  6
CONTINUOUS
 62
7
 10
-4402.133661
 20
4147.357343
 30
0.000000
 11
-4353.529931
 21
4147.357343
 31
0.000000
  0
LINE
  8
ê›îı-â∆ãÔ1äK
  6
CONTINUOUS
 62
7
 10
-4344.835380
 20
4171.867447
 30
0.000000
 11
-4370.012174
 21
4171.867027
 31
0.000000
  0
LINE
  8
ê›îı-â∆ãÔ1äK
  6
CONTINUOUS
 62
7
 10
-4432.897594
 20
3343.832716
 30
0.000000
 11
-4401.680037
 21
3343.886485
 31
0.000000
  0
LINE
  8
ê›îı-â∆ãÔ1äK
  6
CONTINUOUS
 62
7
 10
-3922.254621
 20
3337.997504
 30
0.000000
 11
-3910.684390
 21
3337.997504
 31
0.000000
  0
LINE
  8
ê›îı-â∆ãÔ1äK
  6
CONTINUOUS
 62
7
 10
-4398.477975
 20
3233.508417
 30
0.000000
 11
-4431.459670
 21
3233.558526
 31
0.000000
  0
LINE
  8
ê›îı-â∆ãÔ1äK
  6
CONTINUOUS
 62
7
 10
-4195.789050
 20
2516.768078
 30
0.000000
 11
-4184.246189
 21
2536.346966
 31
0.000000
  0
LINE
  8
ê›îı-â∆ãÔ1äK
  6
CONTINUOUS
 62
7
 10
-4184.246189
 20
2536.346966
 30
0.000000
 11
-4182.173364
 21
2571.129143
 31
0.000000
  0
LINE
  8
ê›îı-â∆ãÔ1äK
  6
CONTINUOUS
 62
7
 10
-4182.173364
 20
2571.129143
 30
0.000000
 11
-4189.840626
 21
2616.921479
 31
0.000000
  0
LINE
  8
ê›îı-â∆ãÔ1äK
  6
CONTINUOUS
 62
7
 10
-4189.840626
 20
2616.921479
 30
0.000000
 11
-4197.898907
 21
2642.007988
 31
0.000000
  0
LINE
  8
ê›îı-â∆ãÔ1äK
  6
CONTINUOUS
 62
7
 10
-4333.962172
 20
3047.401556
 30
0.000000
 11
-4331.865627
 21
3029.709394
 31
0.000000
  0
LINE
  8
ê›îı-â∆ãÔ1äK
  6
CONTINUOUS
 62
7
 10
-4331.865627
 20
3029.709394
 30
0.000000
 11
-4334.712769
 21
3009.819917
 31
0.000000
  0
LINE
  8
ê›îı-â∆ãÔ1äK
  6
CONTINUOUS
 62
7
 10
-4420.247159
 20
3980.480625
 30
0.000000
 11
-4418.017412
 21
3995.526079
 31
0.000000
  0
LINE
  8
ê›îı-â∆ãÔ1äK
  6
CONTINUOUS
 62
7
 10
-3920.094212
 20
3403.427118
 30
0.000000
 11
-3917.950225
 21
3394.363900
 31
0.000000
  0
LINE
  8
ê›îı-â∆ãÔ1äK
  6
CONTINUOUS
 62
7
 10
-3917.950225
 20
3394.363900
 30
0.000000
 11
-3917.577993
 21
3383.667586
 31
0.000000
  0
LINE
  8
ê›îı-â∆ãÔ1äK
  6
CONTINUOUS
 62
7
 10
-3917.577993
 20
3383.667586
 30
0.000000
 11
-3918.181958
 21
3372.965799
 31
0.000000
  0
LINE
  8
ê›îı-â∆ãÔ1äK
  6
CONTINUOUS
 62
7
 10
-3918.181958
 20
3372.965799
 30
0.000000
 11
-3919.293182
 21
3363.170881
 31
0.000000
  0
LINE
  8
ê›îı-â∆ãÔ1äK
  6
CONTINUOUS
 62
7
 10
-3919.293182
 20
3363.170881
 30
0.000000
 11
-3923.141411
 21
3330.450600
 31
0.000000
  0
LINE
  8
ê›îı-â∆ãÔ1äK
  6
CONTINUOUS
 62
7
 10
-4041.770495
 20
3255.777123
 30
0.000000
 11
-4050.249735
 21
3223.615196
 31
0.000000
  0
LINE
  8
ê›îı-â∆ãÔ1äK
  6
CONTINUOUS
 62
7
 10
-4050.249735
 20
3223.615196
 30
0.000000
 11
-4073.439464
 21
3200.071264
 31
0.000000
  0
LINE
  8
ê›îı-â∆ãÔ1äK
  6
CONTINUOUS
 62
7
 10
-4073.439464
 20
3200.071264
 30
0.000000
 11
-4105.119382
 21
3191.456918
 31
0.000000
  0
LINE
  8
ê›îı-â∆ãÔ1äK
  6
CONTINUOUS
 62
7
 10
-4105.119382
 20
3191.456918
 30
0.000000
 11
-4136.797474
 21
3200.071264
 31
0.000000
  0
LINE
  8
ê›îı-â∆ãÔ1äK
  6
CONTINUOUS
 62
7
 10
-4136.797474
 20
3200.071264
 30
0.000000
 11
-4159.989028
 21
3223.617021
 31
0.000000
  0
LINE
  8
ê›îı-â∆ãÔ1äK
  6
CONTINUOUS
 62
7
 10
-4159.989028
 20
3223.617021
 30
0.000000
 11
-4168.475567
 21
3255.780773
 31
0.000000
  0
LINE
  8
ê›îı-â∆ãÔ1äK
  6
CONTINUOUS
 62
7
 10
-4168.475567
 20
3255.780773
 30
0.000000
 11
-4159.983554
 21
3287.942700
 31
0.000000
  0
LINE
  8
ê›îı-â∆ãÔ1äK
  6
CONTINUOUS
 62
7
 10
-4159.983554
 20
3287.942700
 30
0.000000
 11
-4136.797474
 21
3311.488456
 31
0.000000
  0
LINE
  8
ê›îı-â∆ãÔ1äK
  6
CONTINUOUS
 62
7
 10
-4136.797474
 20
3311.488456
 30
0.000000
 11
-4105.119382
 21
3320.108276
 31
0.000000
  0
LINE
  8
ê›îı-â∆ãÔ1äK
  6
CONTINUOUS
 62
7
 10
-4105.119382
 20
3320.108276
 30
0.000000
 11
-4073.439464
 21
3311.486632
 31
0.000000
  0
LINE
  8
ê›îı-â∆ãÔ1äK
  6
CONTINUOUS
 62
7
 10
-4073.439464
 20
3311.486632
 30
0.000000
 11
-4050.249735
 21
3287.935401
 31
0.000000
  0
LINE
  8
ê›îı-â∆ãÔ1äK
  6
CONTINUOUS
 62
7
 10
-4050.249735
 20
3287.935401
 30
0.000000
 11
-4041.770495
 21
3255.777123
 31
0.000000
  0
LINE
  8
ê›îı-â∆ãÔ1äK
  6
CONTINUOUS
 62
7
 10
-4314.023272
 20
2708.222945
 30
0.000000
 11
-4338.604132
 21
2638.916252
 31
0.000000
  0
LINE
  8
ê›îı-â∆ãÔ1äK
  6
CONTINUOUS
 62
7
 10
-4269.296187
 20
2664.487526
 30
0.000000
 11
-4284.665068
 21
2621.158402
 31
0.000000
  0
LINE
  8
ê›îı-â∆ãÔ1äK
  6
CONTINUOUS
 62
7
 10
-4328.858571
 20
3840.071899
 30
0.000000
 11
-4390.266167
 21
3697.620603
 31
0.000000
  0
LINE
  8
ê›îı-â∆ãÔ1äK
  6
CONTINUOUS
 62
7
 10
-4381.456503
 20
3566.137165
 30
0.000000
 11
-4361.315797
 21
3566.137165
 31
0.000000
  0
LINE
  8
ê›îı-â∆ãÔ1äK
  6
CONTINUOUS
 62
7
 10
-4284.666892
 20
2621.154753
 30
0.000000
 11
-4298.007053
 21
2606.860157
 31
0.000000
  0
LINE
  8
ê›îı-â∆ãÔ1äK
  6
CONTINUOUS
 62
7
 10
-4298.007053
 20
2606.860157
 30
0.000000
 11
-4319.330145
 21
2606.144880
 31
0.000000
  0
LINE
  8
ê›îı-â∆ãÔ1äK
  6
CONTINUOUS
 62
7
 10
-4319.330145
 20
2606.144880
 30
0.000000
 11
-4338.604132
 21
2638.916252
 31
0.000000
  0
LINE
  8
ê›îı-â∆ãÔ1äK
  6
CONTINUOUS
 62
7
 10
-4381.456503
 20
3566.137165
 30
0.000000
 11
-4399.332793
 21
3562.178507
 31
0.000000
  0
LINE
  8
ê›îı-â∆ãÔ1äK
  6
CONTINUOUS
 62
7
 10
-4369.762194
 20
4147.357343
 30
0.000000
 11
-4368.842560
 21
4094.255312
 31
0.000000
  0
LINE
  8
ê›îı-â∆ãÔ1äK
  6
CONTINUOUS
 62
7
 10
-4368.842560
 20
4094.255312
 30
0.000000
 11
-4368.678340
 21
4091.762790
 31
0.000000
  0
LINE
  8
ê›îı-â∆ãÔ1äK
  6
CONTINUOUS
 62
7
 10
-4152.287097
 20
2389.441443
 30
0.000000
 11
-4128.095624
 21
2399.342193
 31
0.000000
  0
LINE
  8
ê›îı-â∆ãÔ1äK
  6
CONTINUOUS
 62
7
 10
-4128.095624
 20
2399.342193
 30
0.000000
 11
-4112.602353
 21
2427.201509
 31
0.000000
  0
LINE
  8
ê›îı-â∆ãÔ1äK
  6
CONTINUOUS
 62
7
 10
-4112.602353
 20
2427.201509
 30
0.000000
 11
-4106.865591
 21
2471.154561
 31
0.000000
  0
LINE
  8
ê›îı-â∆ãÔ1äK
  6
CONTINUOUS
 62
7
 10
-4106.865591
 20
2471.154561
 30
0.000000
 11
-4111.093351
 21
2525.862316
 31
0.000000
  0
LINE
  8
ê›îı-â∆ãÔ1äK
  6
CONTINUOUS
 62
7
 10
-4471.367108
 20
4409.158823
 30
0.000000
 11
-4456.238771
 21
4396.579433
 31
0.000000
  0
LINE
  8
ê›îı-â∆ãÔ1äK
  6
CONTINUOUS
 62
7
 10
-4456.238771
 20
4396.579433
 30
0.000000
 11
-4429.432547
 21
4393.470167
 31
0.000000
  0
LINE
  8
ê›îı-â∆ãÔ1äK
  6
CONTINUOUS
 62
7
 10
-4429.432547
 20
4393.470167
 30
0.000000
 11
-4410.805525
 21
4402.444019
 31
0.000000
  0
LINE
  8
ê›îı-â∆ãÔ1äK
  6
CONTINUOUS
 62
7
 10
-4473.930770
 20
4384.677002
 30
0.000000
 11
-4458.802432
 21
4372.097612
 31
0.000000
  0
LINE
  8
ê›îı-â∆ãÔ1äK
  6
CONTINUOUS
 62
7
 10
-4458.802432
 20
4372.097612
 30
0.000000
 11
-4431.996208
 21
4368.988346
 31
0.000000
  0
LINE
  8
ê›îı-â∆ãÔ1äK
  6
CONTINUOUS
 62
7
 10
-4431.996208
 20
4368.988346
 30
0.000000
 11
-4413.369186
 21
4377.962198
 31
0.000000
  0
LINE
  8
ê›îı-â∆ãÔ1äK
  6
CONTINUOUS
 62
7
 10
-4460.513972
 20
3930.122922
 30
0.000000
 11
-4478.808112
 21
3921.420992
 31
0.000000
  0
LINE
  8
ê›îı-â∆ãÔ1äK
  6
CONTINUOUS
 62
7
 10
-4478.808112
 20
3921.420992
 30
0.000000
 11
-4505.765784
 21
3924.615106
 31
0.000000
  0
LINE
  8
ê›îı-â∆ãÔ1äK
  6
CONTINUOUS
 62
7
 10
-4463.287470
 20
3927.875821
 30
0.000000
 11
-4410.341026
 21
3796.846896
 31
0.000000
  0
LINE
  8
ê›îı-â∆ãÔ1äK
  6
CONTINUOUS
 62
7
 10
-4410.341026
 20
3796.846896
 30
0.000000
 11
-4370.510485
 21
3743.449177
 31
0.000000
  0
LINE
  8
ê›îı-â∆ãÔ1äK
  6
CONTINUOUS
 62
7
 10
-4325.377253
 20
3413.888183
 30
0.000000
 11
-4377.274281
 21
3633.959114
 31
0.000000
  0
LINE
  8
ê›îı-â∆ãÔ1äK
  6
CONTINUOUS
 62
7
 10
-4377.274281
 20
3633.959114
 30
0.000000
 11
-4395.921161
 21
3684.502338
 31
0.000000
  0
LINE
  8
ê›îı-â∆ãÔ1äK
  6
CONTINUOUS
 62
7
 10
-4259.557611
 20
3595.415174
 30
0.000000
 11
-4275.083726
 21
3562.370099
 31
0.000000
  0
LINE
  8
ê›îı-â∆ãÔ1äK
  6
CONTINUOUS
 62
7
 10
-4397.765402
 20
3340.272888
 30
0.000000
 11
-4349.040810
 21
3340.272888
 31
0.000000
  0
LINE
  8
ê›îı-â∆ãÔ1äK
  6
CONTINUOUS
 62
7
 10
-4316.280034
 20
2710.154875
 30
0.000000
 11
-4315.335943
 21
2704.517387
 31
0.000000
  0
LINE
  8
ê›îı-â∆ãÔ1äK
  6
CONTINUOUS
 62
7
 10
-4209.472249
 20
4276.735838
 30
0.000000
 11
-4021.806782
 21
4275.154747
 31
0.000000
  0
LINE
  8
ê›îı-â∆ãÔ1äK
  6
CONTINUOUS
 62
7
 10
-3992.602942
 20
3476.513118
 30
0.000000
 11
-3976.069608
 21
3429.339493
 31
0.000000
  0
LINE
  8
ê›îı-â∆ãÔ1äK
  6
CONTINUOUS
 62
7
 10
-3976.069608
 20
3429.339493
 30
0.000000
 11
-3972.420269
 21
3419.568296
 31
0.000000
  0
LINE
  8
ê›îı-â∆ãÔ1äK
  6
CONTINUOUS
 62
7
 10
-4359.885256
 20
3285.357119
 30
0.000000
 11
-4324.273175
 21
3344.433174
 31
0.000000
  0
LINE
  8
ê›îı-â∆ãÔ1äK
  6
CONTINUOUS
 62
7
 10
-4270.020268
 20
3011.166928
 30
0.000000
 11
-4275.676744
 21
3000.269900
 31
0.000000
  0
LINE
  8
ê›îı-â∆ãÔ1äK
  6
CONTINUOUS
 62
7
 10
-4201.506952
 20
3623.663845
 30
0.000000
 11
-4080.190743
 21
3623.807299
 31
0.000000
  0
LINE
  8
ê›îı-â∆ãÔ1äK
  6
CONTINUOUS
 62
7
 10
-4161.934932
 20
2673.323770
 30
0.000000
 11
-4112.996664
 21
2669.296547
 31
0.000000
  0
LINE
  8
ê›îı-â∆ãÔ1äK
  6
CONTINUOUS
 62
7
 10
-4112.996664
 20
2669.296547
 30
0.000000
 11
-4064.121773
 21
2673.318337
 31
0.000000
  0
LINE
  8
ê›îı-â∆ãÔ1äK
  6
CONTINUOUS
 62
7
 10
-4043.808390
 20
2678.832228
 30
0.000000
 11
-4026.153239
 21
2691.297785
 31
0.000000
  0
LINE
  8
ê›îı-â∆ãÔ1äK
  6
CONTINUOUS
 62
7
 10
-3983.838821
 20
2771.465587
 30
0.000000
 11
-3944.791059
 21
2862.854925
 31
0.000000
  0
LINE
  8
ê›îı-â∆ãÔ1äK
  6
CONTINUOUS
 62
7
 10
-3944.791059
 20
2862.854925
 30
0.000000
 11
-3929.835788
 21
2887.050854
 31
0.000000
  0
LINE
  8
ê›îı-â∆ãÔ1äK
  6
CONTINUOUS
 62
7
 10
-3929.835788
 20
2887.050854
 30
0.000000
 11
-3937.595000
 21
2905.517407
 31
0.000000
  0
LINE
  8
ê›îı-â∆ãÔ1äK
  6
CONTINUOUS
 62
7
 10
-3937.595000
 20
2905.517407
 30
0.000000
 11
-3951.882092
 21
2912.121400
 31
0.000000
  0
LINE
  8
ê›îı-â∆ãÔ1äK
  6
CONTINUOUS
 62
7
 10
-3951.882092
 20
2912.121400
 30
0.000000
 11
-3972.278771
 21
2913.153557
 31
0.000000
  0
LINE
  8
ê›îı-â∆ãÔ1äK
  6
CONTINUOUS
 62
7
 10
-3972.278771
 20
2913.153557
 30
0.000000
 11
-3997.559137
 21
2910.073383
 31
0.000000
  0
LINE
  8
ê›îı-â∆ãÔ1äK
  6
CONTINUOUS
 62
7
 10
-3997.559137
 20
2910.073383
 30
0.000000
 11
-4033.479674
 21
2907.310100
 31
0.000000
  0
LINE
  8
ê›îı-â∆ãÔ1äK
  6
CONTINUOUS
 62
7
 10
-4033.479674
 20
2907.310100
 30
0.000000
 11
-4070.102795
 21
2905.685811
 31
0.000000
  0
LINE
  8
ê›îı-â∆ãÔ1äK
  6
CONTINUOUS
 62
7
 10
-4070.102795
 20
2905.685811
 30
0.000000
 11
-4108.350190
 21
2907.310100
 31
0.000000
  0
LINE
  8
ê›îı-â∆ãÔ1äK
  6
CONTINUOUS
 62
7
 10
-4108.350190
 20
2907.310100
 30
0.000000
 11
-4147.631544
 21
2910.080627
 31
0.000000
  0
LINE
  8
ê›îı-â∆ãÔ1äK
  6
CONTINUOUS
 62
7
 10
-4147.631544
 20
2910.080627
 30
0.000000
 11
-4177.739462
 21
2913.153557
 31
0.000000
  0
LINE
  8
ê›îı-â∆ãÔ1äK
  6
CONTINUOUS
 62
7
 10
-4177.739462
 20
2913.153557
 30
0.000000
 11
-4202.587050
 21
2912.117778
 31
0.000000
  0
LINE
  8
ê›îı-â∆ãÔ1äK
  6
CONTINUOUS
 62
7
 10
-4202.587050
 20
2912.117778
 30
0.000000
 11
-4222.608897
 21
2905.519218
 31
0.000000
  0
LINE
  8
ê›îı-â∆ãÔ1äK
  6
CONTINUOUS
 62
7
 10
-4222.608897
 20
2905.519218
 30
0.000000
 11
-4239.630273
 21
2887.049043
 31
0.000000
  0
LINE
  8
ê›îı-â∆ãÔ1äK
  6
CONTINUOUS
 62
7
 10
-4379.628367
 20
2846.157272
 30
0.000000
 11
-4405.631244
 21
2847.883437
 31
0.000000
  0
LINE
  8
ê›îı-â∆ãÔ1äK
  6
CONTINUOUS
 62
7
 10
-4034.372391
 20
2667.159802
 30
0.000000
 11
-4042.202224
 21
2662.205449
 31
0.000000
  0
LINE
  8
ê›îı-â∆ãÔ1äK
  6
CONTINUOUS
 62
7
 10
-4042.202224
 20
2662.205449
 30
0.000000
 11
-4049.360256
 21
2659.561679
 31
0.000000
  0
LINE
  8
ê›îı-â∆ãÔ1äK
  6
CONTINUOUS
 62
7
 10
-4049.360256
 20
2659.561679
 30
0.000000
 11
-4065.440024
 21
2655.914725
 31
0.000000
  0
LINE
  8
ê›îı-â∆ãÔ1äK
  6
CONTINUOUS
 62
7
 10
-4065.440024
 20
2655.914725
 30
0.000000
 11
-4083.747058
 21
2651.856719
 31
0.000000
  0
LINE
  8
ê›îı-â∆ãÔ1äK
  6
CONTINUOUS
 62
7
 10
-4083.747058
 20
2651.856719
 30
0.000000
 11
-4093.097951
 21
2651.000209
 31
0.000000
  0
LINE
  8
ê›îı-â∆ãÔ1äK
  6
CONTINUOUS
 62
7
 10
-4093.097951
 20
2651.000209
 30
0.000000
 11
-4127.638669
 21
2649.980728
 31
0.000000
  0
LINE
  8
ê›îı-â∆ãÔ1äK
  6
CONTINUOUS
 62
7
 10
-4127.638669
 20
2649.980728
 30
0.000000
 11
-4136.477110
 21
2649.779729
 31
0.000000
  0
LINE
  8
ê›îı-â∆ãÔ1äK
  6
CONTINUOUS
 62
7
 10
-4136.477110
 20
2649.779729
 30
0.000000
 11
-4179.791081
 21
2651.003831
 31
0.000000
  0
LINE
  8
ê›îı-â∆ãÔ1äK
  6
CONTINUOUS
 62
7
 10
-4179.791081
 20
2651.003831
 30
0.000000
 11
-4209.274278
 21
2655.550753
 31
0.000000
  0
LINE
  8
ê›îı-â∆ãÔ1äK
  6
CONTINUOUS
 62
7
 10
-4387.020908
 20
2796.537943
 30
0.000000
 11
-4380.482164
 21
2818.872368
 31
0.000000
  0
LINE
  8
ê›îı-â∆ãÔ1äK
  6
CONTINUOUS
 62
7
 10
-4380.482164
 20
2818.872368
 30
0.000000
 11
-4379.628367
 21
2846.157272
 31
0.000000
  0
LINE
  8
ê›îı-â∆ãÔ1äK
  6
CONTINUOUS
 62
7
 10
-4229.430123
 20
2830.628091
 30
0.000000
 11
-4230.590836
 21
2823.902775
 31
0.000000
  0
LINE
  8
ê›îı-â∆ãÔ1äK
  6
CONTINUOUS
 62
7
 10
-4230.590836
 20
2823.902775
 30
0.000000
 11
-4236.883313
 21
2818.191507
 31
0.000000
  0
LINE
  8
ê›îı-â∆ãÔ1äK
  6
CONTINUOUS
 62
7
 10
-4236.883313
 20
2818.191507
 30
0.000000
 11
-4248.222447
 21
2809.651767
 31
0.000000
  0
LINE
  8
ê›îı-â∆ãÔ1äK
  6
CONTINUOUS
 62
7
 10
-4248.222447
 20
2809.651767
 30
0.000000
 11
-4270.373777
 21
2805.611869
 31
0.000000
  0
LINE
  8
ê›îı-â∆ãÔ1äK
  6
CONTINUOUS
 62
7
 10
-4270.373777
 20
2805.611869
 30
0.000000
 11
-4384.786400
 21
2804.166850
 31
0.000000
  0
LINE
  8
ê›îı-â∆ãÔ1äK
  6
CONTINUOUS
 62
7
 10
-4242.248668
 20
2835.513634
 30
0.000000
 11
-4252.124688
 21
2828.087537
 31
0.000000
  0
LINE
  8
ê›îı-â∆ãÔ1äK
  6
CONTINUOUS
 62
7
 10
-4252.124688
 20
2828.087537
 30
0.000000
 11
-4271.460247
 21
2824.551042
 31
0.000000
  0
LINE
  8
ê›îı-â∆ãÔ1äK
  6
CONTINUOUS
 62
7
 10
-4271.460247
 20
2824.551042
 30
0.000000
 11
-4380.348166
 21
2823.174833
 31
0.000000
  0
LINE
  8
ê›îı-â∆ãÔ1äK
  6
CONTINUOUS
 62
7
 10
-3895.831061
 20
2805.617302
 30
0.000000
 11
-3922.947563
 21
2809.648146
 31
0.000000
  0
LINE
  8
ê›îı-â∆ãÔ1äK
  6
CONTINUOUS
 62
7
 10
-3922.947563
 20
2809.648146
 30
0.000000
 11
-3939.668251
 21
2817.623403
 31
0.000000
  0
LINE
  8
ê›îı-â∆ãÔ1äK
  6
CONTINUOUS
 62
7
 10
-4064.105476
 20
2673.323770
 30
0.000000
 11
-4043.808390
 21
2678.834038
 31
0.000000
  0
LINE
  8
ê›îı-â∆ãÔ1äK
  6
CONTINUOUS
 62
7
 10
-4266.572939
 20
2947.529811
 30
0.000000
 11
-4230.529107
 21
2926.496606
 31
0.000000
  0
LINE
  8
ê›îı-â∆ãÔ1äK
  6
CONTINUOUS
 62
7
 10
-4119.855281
 20
2908.121558
 30
0.000000
 11
-4026.511774
 21
2919.409876
 31
0.000000
  0
LINE
  8
ê›îı-â∆ãÔ1äK
  6
CONTINUOUS
 62
7
 10
-4026.511774
 20
2919.409876
 30
0.000000
 11
-3979.565369
 21
2947.528000
 31
0.000000
  0
LINE
  8
ê›îı-â∆ãÔ1äK
  6
CONTINUOUS
 62
7
 10
-4242.248668
 20
2835.513634
 30
0.000000
 11
-4240.620772
 21
2839.035643
 31
0.000000
  0
LINE
  8
ê›îı-â∆ãÔ1äK
  6
CONTINUOUS
 62
7
 10
-4354.716508
 20
2804.547118
 30
0.000000
 11
-4350.408651
 21
2783.568983
 31
0.000000
  0
LINE
  8
ê›îı-â∆ãÔ1äK
  6
CONTINUOUS
 62
7
 10
-4350.408651
 20
2783.568983
 30
0.000000
 11
-4341.657129
 21
2752.147957
 31
0.000000
  0
LINE
  8
ê›îı-â∆ãÔ1äK
  6
CONTINUOUS
 62
7
 10
-4341.657129
 20
2752.147957
 30
0.000000
 11
-4332.731771
 21
2729.043941
 31
0.000000
  0
LINE
  8
ê›îı-â∆ãÔ1äK
  6
CONTINUOUS
 62
7
 10
-4332.731771
 20
2729.043941
 30
0.000000
 11
-4320.608567
 21
2713.860371
 31
0.000000
  0
LINE
  8
ê›îı-â∆ãÔ1äK
  6
CONTINUOUS
 62
7
 10
-4320.608567
 20
2713.860371
 30
0.000000
 11
-4308.481741
 21
2703.479046
 31
0.000000
  0
LINE
  8
ê›îı-â∆ãÔ1äK
  6
CONTINUOUS
 62
7
 10
-4308.481741
 20
2703.479046
 30
0.000000
 11
-4301.617056
 21
2697.447267
 31
0.000000
  0
LINE
  8
ê›îı-â∆ãÔ1äK
  6
CONTINUOUS
 62
7
 10
-4301.617056
 20
2697.447267
 30
0.000000
 11
-4273.046495
 21
2682.591451
 31
0.000000
  0
LINE
  8
ê›îı-â∆ãÔ1äK
  6
CONTINUOUS
 62
7
 10
-4273.046495
 20
2682.591451
 30
0.000000
 11
-4261.386852
 21
2677.990205
 31
0.000000
  0
LINE
  8
ê›îı-â∆ãÔ1äK
  6
CONTINUOUS
 62
7
 10
-4364.362558
 20
2902.415504
 30
0.000000
 11
-4357.697060
 21
2886.092940
 31
0.000000
  0
LINE
  8
ê›îı-â∆ãÔ1äK
  6
CONTINUOUS
 62
7
 10
-4013.945988
 20
2663.888251
 30
0.000000
 11
-4039.991256
 21
2647.836739
 31
0.000000
  0
LINE
  8
ê›îı-â∆ãÔ1äK
  6
CONTINUOUS
 62
7
 10
-4039.991256
 20
2647.836739
 30
0.000000
 11
-4052.578020
 21
2644.810890
 31
0.000000
  0
LINE
  8
ê›îı-â∆ãÔ1äK
  6
CONTINUOUS
 62
7
 10
-4052.578020
 20
2644.810890
 30
0.000000
 11
-4072.703082
 21
2642.665090
 31
0.000000
  0
LINE
  8
ê›îı-â∆ãÔ1äK
  6
CONTINUOUS
 62
7
 10
-4072.703082
 20
2642.665090
 30
0.000000
 11
-4099.283591
 21
2641.424691
 31
0.000000
  0
LINE
  8
ê›îı-â∆ãÔ1äK
  6
CONTINUOUS
 62
7
 10
-4099.283591
 20
2641.424691
 30
0.000000
 11
-4142.280675
 21
2640.783668
 31
0.000000
  0
LINE
  8
ê›îı-â∆ãÔ1äK
  6
CONTINUOUS
 62
7
 10
-4142.280675
 20
2640.783668
 30
0.000000
 11
-4185.339325
 21
2641.421070
 31
0.000000
  0
LINE
  8
ê›îı-â∆ãÔ1äK
  6
CONTINUOUS
 62
7
 10
-4185.339325
 20
2641.421070
 30
0.000000
 11
-4211.921645
 21
2642.663280
 31
0.000000
  0
LINE
  8
ê›îı-â∆ãÔ1äK
  6
CONTINUOUS
 62
7
 10
-4211.921645
 20
2642.663280
 30
0.000000
 11
-4232.059382
 21
2644.814512
 31
0.000000
  0
LINE
  8
ê›îı-â∆ãÔ1äK
  6
CONTINUOUS
 62
7
 10
-4232.059382
 20
2644.814512
 30
0.000000
 11
-4244.593634
 21
2647.840361
 31
0.000000
  0
LINE
  8
ê›îı-â∆ãÔ1äK
  6
CONTINUOUS
 62
7
 10
-4244.593634
 20
2647.840361
 30
0.000000
 11
-4267.610519
 21
2660.579349
 31
0.000000
  0
LINE
  8
ê›îı-â∆ãÔ1äK
  6
CONTINUOUS
 62
7
 10
-4267.610519
 20
2660.579349
 30
0.000000
 11
-4278.277852
 21
2685.311275
 31
0.000000
  0
LINE
  8
ê›îı-â∆ãÔ1äK
  6
CONTINUOUS
 62
7
 10
-4359.395576
 20
2856.491768
 30
0.000000
 11
-4357.477955
 21
2889.884758
 31
0.000000
  0
LINE
  8
ê›îı-â∆ãÔ1äK
  6
CONTINUOUS
 62
7
 10
-4307.357244
 20
2841.364333
 30
0.000000
 11
-4308.543308
 21
2856.491768
 31
0.000000
  0
LINE
  8
ê›îı-â∆ãÔ1äK
  6
CONTINUOUS
 62
7
 10
-4308.543308
 20
2856.491768
 30
0.000000
 11
-4309.895964
 21
2889.886569
 31
0.000000
  0
LINE
  8
ê›îı-â∆ãÔ1äK
  6
CONTINUOUS
 62
7
 10
-4309.895964
 20
2889.886569
 30
0.000000
 11
-4310.104205
 21
2919.408065
 31
0.000000
  0
LINE
  8
ê›îı-â∆ãÔ1äK
  6
CONTINUOUS
 62
7
 10
-4310.104205
 20
2919.408065
 30
0.000000
 11
-4266.578372
 21
2947.533433
 31
0.000000
  0
LINE
  8
ê›îı-â∆ãÔ1äK
  6
CONTINUOUS
 62
7
 10
-4266.578372
 20
2947.533433
 30
0.000000
 11
-4268.662585
 21
2959.542668
 31
0.000000
  0
LINE
  8
ê›îı-â∆ãÔ1äK
  6
CONTINUOUS
 62
7
 10
-4378.586273
 20
3321.869551
 30
0.000000
 11
-4370.501119
 21
3225.587428
 31
0.000000
  0
LINE
  8
ê›îı-â∆ãÔ1äK
  6
CONTINUOUS
 62
7
 10
-4370.501119
 20
3225.587428
 30
0.000000
 11
-4357.400091
 21
3198.439892
 31
0.000000
  0
LINE
  8
ê›îı-â∆ãÔ1äK
  6
CONTINUOUS
 62
7
 10
-4357.400091
 20
3198.439892
 30
0.000000
 11
-4331.480518
 21
3157.638914
 31
0.000000
  0
LINE
  8
ê›îı-â∆ãÔ1äK
  6
CONTINUOUS
 62
7
 10
-4331.480518
 20
3157.638914
 30
0.000000
 11
-4293.886816
 21
3093.216031
 31
0.000000
  0
LINE
  8
ê›îı-â∆ãÔ1äK
  6
CONTINUOUS
 62
7
 10
-4293.886816
 20
3093.216031
 30
0.000000
 11
-4285.933850
 21
3059.053451
 31
0.000000
  0
LINE
  8
ê›îı-â∆ãÔ1äK
  6
CONTINUOUS
 62
7
 10
-3931.029095
 20
2889.888380
 30
0.000000
 11
-3934.793716
 21
2919.408065
 31
0.000000
  0
LINE
  8
ê›îı-â∆ãÔ1äK
  6
CONTINUOUS
 62
7
 10
-3934.802770
 20
2919.415308
 30
0.000000
 11
-3979.572612
 21
2947.528000
 31
0.000000
  0
LINE
  8
ê›îı-â∆ãÔ1äK
  6
CONTINUOUS
 62
7
 10
-3979.572612
 20
2947.528000
 30
0.000000
 11
-3963.384197
 21
3059.053451
 31
0.000000
  0
LINE
  8
ê›îı-â∆ãÔ1äK
  6
CONTINUOUS
 62
7
 10
-3963.384197
 20
3059.053451
 30
0.000000
 11
-3956.845453
 21
3093.216031
 31
0.000000
  0
LINE
  8
ê›îı-â∆ãÔ1äK
  6
CONTINUOUS
 62
7
 10
-3956.845453
 20
3093.216031
 30
0.000000
 11
-3948.032364
 21
3109.473406
 31
0.000000
  0
LINE
  8
ê›îı-â∆ãÔ1äK
  6
CONTINUOUS
 62
7
 10
-4359.390144
 20
2856.489958
 30
0.000000
 11
-4356.838748
 21
2823.471804
 31
0.000000
  0
LINE
  8
ê›îı-â∆ãÔ1äK
  6
CONTINUOUS
 62
7
 10
-4259.199424
 20
2826.792814
 30
0.000000
 11
-4261.776171
 21
2870.775370
 31
0.000000
  0
LINE
  8
ê›îı-â∆ãÔ1äK
  6
CONTINUOUS
 62
7
 10
-4261.776171
 20
2870.775370
 30
0.000000
 11
-4267.708301
 21
2870.739154
 31
0.000000
  0
LINE
  8
ê›îı-â∆ãÔ1äK
  6
CONTINUOUS
 62
7
 10
-4267.708301
 20
2870.739154
 30
0.000000
 11
-4300.601206
 21
2847.388870
 31
0.000000
  0
LINE
  8
ê›îı-â∆ãÔ1äK
  6
CONTINUOUS
 62
7
 10
-4327.022366
 20
2823.848451
 30
0.000000
 11
-4300.601206
 21
2847.388870
 31
0.000000
  0
LINE
  8
ê›îı-â∆ãÔ1äK
  6
CONTINUOUS
 62
7
 10
-4378.586273
 20
3321.873173
 30
0.000000
 11
-4391.419304
 21
3321.871362
 31
0.000000
  0
LINE
  8
ê›îı-â∆ãÔ1äK
  6
CONTINUOUS
 62
7
 10
-4373.706208
 20
2922.911966
 30
0.000000
 11
-4380.567271
 21
2931.663569
 31
0.000000
  0
LINE
  8
ê›îı-â∆ãÔ1äK
  6
CONTINUOUS
 62
7
 10
-4391.419304
 20
3321.871362
 30
0.000000
 11
-4405.601551
 21
3144.366803
 31
0.000000
  0
LINE
  8
ê›îı-â∆ãÔ1äK
  6
CONTINUOUS
 62
7
 10
-4356.588860
 20
2961.552658
 30
0.000000
 11
-4361.246198
 21
3010.561999
 31
0.000000
  0
LINE
  8
ê›îı-â∆ãÔ1äK
  6
CONTINUOUS
 62
7
 10
-4373.706208
 20
2922.911966
 30
0.000000
 11
-4364.362558
 21
2902.415504
 31
0.000000
  0
LINE
  8
ê›îı-â∆ãÔ1äK
  6
CONTINUOUS
 62
7
 10
-4355.256122
 20
2942.758349
 30
0.000000
 11
-4355.239825
 21
2919.411686
 31
0.000000
  0
LINE
  8
ê›îı-â∆ãÔ1äK
  6
CONTINUOUS
 62
7
 10
-4355.239825
 20
2919.411686
 30
0.000000
 11
-4357.479766
 21
2889.886569
 31
0.000000
  0
LINE
  8
ê›îı-â∆ãÔ1äK
  6
CONTINUOUS
 62
7
 10
-4261.377798
 20
2677.986583
 30
0.000000
 11
-4238.407994
 21
2672.809502
 31
0.000000
  0
LINE
  8
ê›îı-â∆ãÔ1äK
  6
CONTINUOUS
 62
7
 10
-4231.059829
 20
2666.551372
 30
0.000000
 11
-4228.446867
 21
2662.172854
 31
0.000000
  0
LINE
  8
ê›îı-â∆ãÔ1äK
  6
CONTINUOUS
 62
7
 10
-4209.020768
 20
2655.510916
 30
0.000000
 11
-4228.446867
 21
2662.172854
 31
0.000000
  0
LINE
  8
ê›îı-â∆ãÔ1äK
  6
CONTINUOUS
 62
7
 10
-3922.429678
 20
2870.777181
 30
0.000000
 11
-3917.390264
 21
2870.742776
 31
0.000000
  0
LINE
  8
ê›îı-â∆ãÔ1äK
  6
CONTINUOUS
 62
7
 10
-3917.390264
 20
2870.742776
 30
0.000000
 11
-3894.710185
 21
2847.390680
 31
0.000000
  0
LINE
  8
ê›îı-â∆ãÔ1äK
  6
CONTINUOUS
 62
7
 10
-3880.098963
 20
2824.388070
 30
0.000000
 11
-3894.706564
 21
2847.383437
 31
0.000000
  0
LINE
  8
ê›îı-â∆ãÔ1äK
  6
CONTINUOUS
 62
7
 10
-4006.421899
 20
2678.212448
 30
0.000000
 11
-4027.612731
 21
2671.771913
 31
0.000000
  0
LINE
  8
ê›îı-â∆ãÔ1äK
  6
CONTINUOUS
 62
7
 10
-3922.429678
 20
2870.775370
 30
0.000000
 11
-3923.490798
 21
2866.375123
 31
0.000000
  0
LINE
  8
ê›îı-â∆ãÔ1äK
  6
CONTINUOUS
 62
7
 10
-3923.490798
 20
2866.375123
 30
0.000000
 11
-3951.458368
 21
2782.093180
 31
0.000000
  0
LINE
  8
ê›îı-â∆ãÔ1äK
  6
CONTINUOUS
 62
7
 10
-3951.458368
 20
2782.093180
 30
0.000000
 11
-3968.048778
 21
2740.964447
 31
0.000000
  0
LINE
  8
ê›îı-â∆ãÔ1äK
  6
CONTINUOUS
 62
7
 10
-3968.048778
 20
2740.964447
 30
0.000000
 11
-3987.092801
 21
2706.501274
 31
0.000000
  0
LINE
  8
ê›îı-â∆ãÔ1äK
  6
CONTINUOUS
 62
7
 10
-3987.092801
 20
2706.501274
 30
0.000000
 11
-4001.910453
 21
2691.247082
 31
0.000000
  0
LINE
  8
ê›îı-â∆ãÔ1äK
  6
CONTINUOUS
 62
7
 10
-4246.297583
 20
2707.350540
 30
0.000000
 11
-4250.824545
 21
2729.842504
 31
0.000000
  0
LINE
  8
ê›îı-â∆ãÔ1äK
  6
CONTINUOUS
 62
7
 10
-4250.824545
 20
2729.842504
 30
0.000000
 11
-4255.069024
 21
2764.226002
 31
0.000000
  0
LINE
  8
ê›îı-â∆ãÔ1äK
  6
CONTINUOUS
 62
7
 10
-4255.069024
 20
2764.226002
 30
0.000000
 11
-4257.350613
 21
2795.257707
 31
0.000000
  0
LINE
  8
ê›îı-â∆ãÔ1äK
  6
CONTINUOUS
 62
7
 10
-4257.350613
 20
2795.257707
 30
0.000000
 11
-4258.087602
 21
2807.851831
 31
0.000000
  0
LINE
  8
ê›îı-â∆ãÔ1äK
  6
CONTINUOUS
 62
7
 10
-4261.772549
 20
2870.784424
 30
0.000000
 11
-4256.983023
 21
2882.809957
 31
0.000000
  0
LINE
  8
ê›îı-â∆ãÔ1äK
  6
CONTINUOUS
 62
7
 10
-4256.983023
 20
2882.809957
 30
0.000000
 11
-4239.633895
 21
2887.052665
 31
0.000000
  0
LINE
  8
ê›îı-â∆ãÔ1äK
  6
CONTINUOUS
 62
7
 10
-4239.633895
 20
2887.052665
 30
0.000000
 11
-4228.273031
 21
2862.849492
 31
0.000000
  0
LINE
  8
ê›îı-â∆ãÔ1äK
  6
CONTINUOUS
 62
7
 10
-4228.273031
 20
2862.849492
 30
0.000000
 11
-4213.801240
 21
2771.465587
 31
0.000000
  0
LINE
  8
ê›îı-â∆ãÔ1äK
  6
CONTINUOUS
 62
7
 10
-4213.801240
 20
2771.465587
 30
0.000000
 11
-4208.064674
 21
2727.158897
 31
0.000000
  0
LINE
  8
ê›îı-â∆ãÔ1äK
  6
CONTINUOUS
 62
7
 10
-4208.064674
 20
2727.153464
 30
0.000000
 11
-4197.281451
 21
2691.303217
 31
0.000000
  0
LINE
  8
ê›îı-â∆ãÔ1äK
  6
CONTINUOUS
 62
7
 10
-4197.281451
 20
2691.303217
 30
0.000000
 11
-4182.603229
 21
2678.841282
 31
0.000000
  0
LINE
  8
ê›îı-â∆ãÔ1äK
  6
CONTINUOUS
 62
7
 10
-4182.603229
 20
2678.841282
 30
0.000000
 11
-4161.965716
 21
2673.332824
 31
0.000000
  0
LINE
  8
ê›îı-â∆ãÔ1äK
  6
CONTINUOUS
 62
7
 10
-3983.840632
 20
2771.469208
 30
0.000000
 11
-4003.054869
 21
2727.155275
 31
0.000000
  0
LINE
  8
ê›îı-â∆ãÔ1äK
  6
CONTINUOUS
 62
7
 10
-3929.832166
 20
2887.049043
 30
0.000000
 11
-3919.711690
 21
2882.800903
 31
0.000000
  0
LINE
  8
ê›îı-â∆ãÔ1äK
  6
CONTINUOUS
 62
7
 10
-3919.711690
 20
2882.800903
 30
0.000000
 11
-3922.429678
 21
2870.775370
 31
0.000000
  0
LINE
  8
ê›îı-â∆ãÔ1äK
  6
CONTINUOUS
 62
7
 10
-4003.054869
 20
2727.155275
 30
0.000000
 11
-4026.145996
 21
2691.308650
 31
0.000000
  0
LINE
  8
ê›îı-â∆ãÔ1äK
  6
CONTINUOUS
 62
7
 10
-4001.910453
 20
2691.247082
 30
0.000000
 11
-4034.366958
 21
2667.168856
 31
0.000000
  0
LINE
  8
ê›îı-â∆ãÔ1äK
  6
CONTINUOUS
 62
7
 10
-4231.056208
 20
2666.553183
 30
0.000000
 11
-4238.402561
 21
2672.816745
 31
0.000000
  0
LINE
  8
ê›îı-â∆ãÔ1äK
  6
CONTINUOUS
 62
7
 10
-4238.402561
 20
2672.816745
 30
0.000000
 11
-4246.297583
 21
2707.350540
 31
0.000000
  0
LINE
  8
ê›îı-â∆ãÔ1äK
  6
CONTINUOUS
 62
7
 10
-4287.300992
 20
2999.456354
 30
0.000000
 11
-4284.870919
 21
2992.350769
 31
0.000000
  0
LINE
  8
ê›îı-â∆ãÔ1äK
  6
CONTINUOUS
 62
7
 10
-4284.870919
 20
2992.350769
 30
0.000000
 11
-4280.525036
 21
2977.978438
 31
0.000000
  0
LINE
  8
ê›îı-â∆ãÔ1äK
  6
CONTINUOUS
 62
7
 10
-4280.525036
 20
2977.978438
 30
0.000000
 11
-4305.926724
 21
2964.381130
 31
0.000000
  0
LINE
  8
ê›îı-â∆ãÔ1äK
  6
CONTINUOUS
 62
7
 10
-3879.790120
 20
3114.128378
 30
0.000000
 11
-3914.637134
 21
3074.040956
 31
0.000000
  0
LINE
  8
ê›îı-â∆ãÔ1äK
  6
CONTINUOUS
 62
7
 10
-3914.637134
 20
3074.040956
 30
0.000000
 11
-3931.761144
 21
3092.208570
 31
0.000000
  0
LINE
  8
ê›îı-â∆ãÔ1äK
  6
CONTINUOUS
 62
7
 10
-4305.926724
 20
2964.381130
 30
0.000000
 11
-4380.881011
 21
2931.527464
 31
0.000000
  0
LINE
  8
ê›îı-â∆ãÔ1äK
  6
CONTINUOUS
 62
7
 10
-4391.267911
 20
2945.315154
 30
0.000000
 11
-4317.791948
 21
2979.742175
 31
0.000000
  0
LINE
  8
ê›îı-â∆ãÔ1äK
  6
CONTINUOUS
 62
7
 10
-4397.972789
 20
2787.290817
 30
0.000000
 11
-4387.020908
 21
2796.537943
 31
0.000000
  0
LINE
  8
ê›îı-â∆ãÔ1äK
  6
CONTINUOUS
 62
7
 10
-3895.831061
 20
2805.617302
 30
0.000000
 11
-3866.517483
 21
2805.292475
 31
0.000000
  0
LINE
  8
ê›îı-â∆ãÔ1äK
  6
CONTINUOUS
 62
7
 10
-3762.839787
 20
2823.089725
 30
0.000000
 11
-3761.589465
 21
2804.129755
 31
0.000000
  0
LINE
  8
ê›îı-â∆ãÔ1äK
  6
CONTINUOUS
 62
7
 10
-4450.394354
 20
4330.952753
 30
0.000000
 11
-4500.534456
 21
4349.711444
 31
0.000000
  0
LINE
  8
ê›îı-â∆ãÔ1äK
  6
CONTINUOUS
 62
7
 10
-4396.486308
 20
4337.649353
 30
0.000000
 11
-4380.903878
 21
4350.296801
 31
0.000000
  0
LINE
  8
ê›îı-â∆ãÔ1äK
  6
CONTINUOUS
 62
7
 10
-4500.534456
 20
4349.711444
 30
0.000000
 11
-4511.369345
 21
4364.755073
 31
0.000000
  0
LINE
  8
ê›îı-â∆ãÔ1äK
  6
CONTINUOUS
 62
7
 10
-4450.394354
 20
4330.952753
 30
0.000000
 11
-4396.486308
 21
4337.649353
 31
0.000000
  0
LINE
  8
ê›îı-â∆ãÔ1äK
  6
CONTINUOUS
 62
7
 10
-4284.125037
 20
4301.226440
 30
0.000000
 11
-4211.620124
 21
4460.771270
 31
0.000000
  0
LINE
  8
ê›îı-â∆ãÔ1äK
  6
CONTINUOUS
 62
7
 10
-4211.620124
 20
4460.771270
 30
0.000000
 11
-4194.952666
 21
4480.319703
 31
0.000000
  0
LINE
  8
ê›îı-â∆ãÔ1äK
  6
CONTINUOUS
 62
7
 10
-4194.952666
 20
4480.319703
 30
0.000000
 11
-4044.781168
 21
4480.320598
 31
0.000000
  0
LINE
  8
ê›îı-â∆ãÔ1äK
  6
CONTINUOUS
 62
7
 10
-4306.829332
 20
4431.228408
 30
0.000000
 11
-4295.131374
 21
4400.738807
 31
0.000000
  0
LINE
  8
ê›îı-â∆ãÔ1äK
  6
CONTINUOUS
 62
7
 10
-4306.829332
 20
4431.228408
 30
0.000000
 11
-4319.488891
 21
4443.180106
 31
0.000000
  0
LINE
  8
ê›îı-â∆ãÔ1äK
  6
CONTINUOUS
 62
7
 10
-4319.488891
 20
4443.180106
 30
0.000000
 11
-4332.252457
 21
4435.787388
 31
0.000000
  0
LINE
  8
ê›îı-â∆ãÔ1äK
  6
CONTINUOUS
 62
7
 10
-4283.758207
 20
4342.125309
 30
0.000000
 11
-4279.843407
 21
4310.648035
 31
0.000000
  0
LINE
  8
ê›îı-â∆ãÔ1äK
  6
CONTINUOUS
 62
7
 10
-4295.131374
 20
4400.738807
 30
0.000000
 11
-4283.758207
 21
4342.125309
 31
0.000000
  0
LINE
  8
ê›îı-â∆ãÔ1äK
  6
CONTINUOUS
 62
7
 10
-4284.125037
 20
4301.226440
 30
0.000000
 11
-4341.078384
 21
4182.459753
 31
0.000000
  0
LINE
  8
ê›îı-â∆ãÔ1äK
  6
CONTINUOUS
 62
7
 10
-3880.098963
 20
2824.388070
 30
0.000000
 11
-3869.165489
 21
2824.267009
 31
0.000000
  0
ENDSEC
  0
EOF
